/* XPM */
static char *_6c99914af714420938406ce881d29e1DWmm82oT33NtniNH[] = {
/* columns rows colors chars-per-pixel */
"64 64 193 2 ",
"   c #1D131E",
".  c #22161E",
"X  c #26191C",
"o  c #2B1C1D",
"O  c #321F17",
"+  c #321F1B",
"@  c #352116",
"#  c #3E2613",
"$  c #34201B",
"%  c #3E241D",
"&  c #1F1521",
"*  c #211723",
"=  c #231925",
"-  c #2C1E21",
";  c #261C29",
":  c #2E2127",
">  c #2D212B",
",  c #352524",
"<  c #3A2722",
"1  c #3C2923",
"2  c #34262A",
"3  c #38282E",
"4  c #2E2533",
"5  c #402714",
"6  c #452915",
"7  c #4B2B16",
"8  c #43261C",
"9  c #46281D",
"0  c #4C2B1C",
"q  c #532E1A",
"w  c #4E331C",
"e  c #56311B",
"r  c #5C331B",
"t  c #59381E",
"y  c #62351C",
"u  c #64381E",
"i  c #432E25",
"p  c #4C2F25",
"a  c #432B2A",
"s  c #4A3426",
"d  c #493529",
"f  c #563720",
"g  c #523C2C",
"h  c #5B3F2E",
"j  c #613025",
"k  c #6A3627",
"l  c #653C22",
"z  c #693E24",
"x  c #623F2A",
"c  c #6E3A28",
"v  c #743D2A",
"b  c #5D412E",
"n  c #664123",
"m  c #6B4126",
"M  c #6C4827",
"N  c #634028",
"B  c #6D442A",
"V  c #74442C",
"C  c #7A442C",
"Z  c #72492E",
"A  c #7D492E",
"S  c #664731",
"D  c #664831",
"F  c #6C4C33",
"G  c #744B30",
"H  c #6D5035",
"J  c #725032",
"K  c #7E5237",
"L  c #84482D",
"P  c #814D30",
"I  c #845233",
"U  c #8F5130",
"Y  c #8D5834",
"T  c #925632",
"R  c #955B35",
"E  c #985F36",
"W  c #86643A",
"Q  c #8B623A",
"!  c #996037",
"~  c #93663B",
"^  c #9D6639",
"/  c #9A6B3D",
"(  c #A4753E",
")  c #9C6E42",
"_  c #9C7344",
"`  c #987649",
"'  c #A47743",
"]  c #A87743",
"[  c #A57841",
"{  c #AA7D42",
"}  c #A67B48",
"|  c #BE843F",
" . c #B48442",
".. c #BE8442",
"X. c #BE8942",
"o. c #AA8550",
"O. c #C18544",
"+. c #C38C46",
"@. c #C38749",
"#. c #C3874A",
"$. c #C3874B",
"%. c #C3864A",
"&. c #C2854A",
"*. c #C48749",
"=. c #C4864A",
"-. c #C4874B",
";. c #C6854B",
":. c #C3874C",
">. c #C3864D",
",. c #C3874E",
"<. c #C4864C",
"1. c #C3874A",
"2. c #C18949",
"3. c #C38849",
"4. c #C38949",
"5. c #C28949",
"6. c #C28B48",
"7. c #C38B49",
"8. c #C2894A",
"9. c #C28A4A",
"0. c #C48849",
"q. c #C48B49",
"w. c #C48A48",
"e. c #C4894B",
"r. c #C48A4B",
"t. c #C38D48",
"y. c #C38C49",
"u. c #C38E49",
"i. c #C38C4B",
"p. c #C38E4B",
"a. c #C48C48",
"s. c #C48C49",
"d. c #C58D49",
"f. c #C58C48",
"g. c #C78D49",
"h. c #C48F48",
"j. c #C58F48",
"k. c #C48E49",
"l. c #C48F49",
"z. c #C58F49",
"x. c #C58E48",
"c. c #C68F48",
"v. c #C78E49",
"b. c #C68F49",
"n. c #C78F48",
"m. c #C48C4A",
"M. c #C58D4A",
"N. c #C48D4B",
"B. c #C78C4B",
"V. c #C58E4A",
"C. c #C48F4A",
"Z. c #C58F4A",
"A. c #C48E4B",
"S. c #C78E4A",
"D. c #C68F4A",
"F. c #C1884C",
"G. c #C5884C",
"H. c #C78C4C",
"J. c #C58E4C",
"K. c #C68F4D",
"L. c #C48C49",
"P. c #C88E4E",
"I. c #C39146",
"U. c #C39147",
"Y. c #C39246",
"T. c #C49045",
"R. c #C59145",
"E. c #C49046",
"W. c #C59146",
"Q. c #C49047",
"!. c #C59047",
"~. c #C49147",
"^. c #C59147",
"/. c #C59146",
"(. c #C69047",
"). c #C69146",
"_. c #C49247",
"`. c #C49146",
"'. c #C39148",
"]. c #C3904A",
"[. c #C49048",
"{. c #C59048",
"}. c #C49148",
"|. c #C59148",
" X c #C59049",
".X c #C49049",
"XX c #C79049",
"oX c #C49249",
"OX c #C5904A",
"+X c #C6904A",
"@X c #C7914B",
"#X c #C59148",
"$X c #C89049",
/* pixels */
"8.K.8.k.6.6.c.+.k.8.8.y.K.k.k.k.q.q.$.y.{.{.k.y.{.k.k.k.c.k.k.k.8.k.k.{.8.q.....O.O.K.y.6.8.q.O.........y.'.y.8.).{.k.k.q.K.{.8.",
"k.{.c.a.a.O.c.c.q.8.$.,.$.6.a.B.g.a.6.c.+.X.6.y.{.{.k.{.k.a.q.*.$.O.O.*.6.q.k.k.k.q.y.8.q.*.*.O.......6.T.).{.k.).k.6.a.g.g.R.O.",
"T.T.).O.| O.k.k.*.<.<.*.&...O.O.O.*.O.| ....$.q.q.*.o o o o o o o o o o o o *...$.*.<.<.<.$.$.6.T.'.{.K.y.oXy.9.q.G.8.$.a.O.O.X.",
"'.T.+...6.c.6.K.*.*.<.<.&.&.O.| | | O.O...X.6.k.G.<.o o o o o o o X o o o X <.,.*.<.*.q.*.q.k.).'.'.{.y.y.@Xy.9.8.*.,.$...O.| X.",
"+.Y.+...+.T.y.y.$.*.*.8.*.*.*.B.c.O.a.a.n.o o o o o o.^ ^ o.o.o.o.o.o.^ ^ o.o o o o o k.{.).).+.+.{.R.).).T.y.i.k.O.*.q.O.| O.+.",
"T.).).+.{.oX).'.c.8.K.k.B.q.8.q.k.k.o o o o.o.o.^ ^ j j j j j j j j j j j j ^ ^ o.o.o.o o o X.| | ..| O.O.6.).+.{.6...| | ..k.k.",
"{.+.X...+.{.).T.c.k.'.'.).).k.6.6.a.o o o o.o.o.^ ^ j j j j j j j j j j j j ^ ^ o.o.o.o o o | | O.O.O.O.O.O.8.q.{.+.| | c.k.a.k.",
"@X8.....8.y.{.).).).{.'.{.k.n.g.J o ^ ^ ^ j j j j j U U U U E ^ ^ T U U U T j j j j j ^ ^ ^ o ( q.q.c.c.k.$.,.*.T.T.O.c.c.a.a.k.",
"k.8.$.*.*.q.c.).T.c.6.O.O.O.O./ G g / R I v v v A L R R R R ^ ^ ^ E E E R E Y Y L L L c R ^ ` g < ,.,.*.*.9.<.*.{.{.{.Y.{.6.6.k.",
"k.8.G.*.$.k.c.k...| ..........o F o.^ A j U U U ^ ^ ^ ^ ^ ^ ^ ^ ^ ^ ^ ^ ^ ^ ^ ^ U U U j Y ^ o.s o *.$.*.,.$.<.q.{.{.T.).{.8.*.G.",
"q.*.q.8.c.y.6.O...O.$.O.*.B.$.o x ^ j C U U U U U U U U T ^ ^ ^ ^ ^ ^ U T U U U U U U U c j / i o q.a.B.q.q.$.O.oX{.).).{.G.*.<.",
"q.*.K.{.+.6.,.<.8.*.$.$.*./ / o x ^ V C C U T T R T R R R ^ ^ ^ ^ ^ ^ R E E E R R T U k I R ^ t # < , {.{.k.6.c.{.).T.'.@Xq.*.*.",
"y.8.k.{.{.8.<.<.$.<.<.<.*.o o # n ^ ^ P j U E ^ ^ ^ ^ ^ ^ ^ ^ ^ ^ ^ ^ ^ ^ ^ ^ ^ ^ T U j Y ^ ^ r # o o {.k.c.c.c.{.).y.{.i.$.$.$.",
"k.k.k.c.H.*.<.<.$.*.,.<.*.o o y q # o.] ^ j j f j j U ^ ^ ^ ^ ^ ^ ^ ^ ^ ^ U j j j j j ^ } o.5 e y X o {.k.k.k.q.{.{.{.'.8.8.$.q.",
"y.{.).y.q.q.8.*.*.<.<.G.<.X X q 0 # W Q ^ I K I A C C L A A A C A C V C v v Y Y ) ) ` ^ B w # $ +     {.q.*.*.*.8.k.).T.c.c.c.q.",
"9.'.T.+.6.k.k.k.$.8.G.<.<.    - + # 5 x ^ o.o.o.^ ^ j j j j j j j j j j j j ^ ^ o.o.o.^ l # # $ o     y.<.<.<.*.*.k.{.T.+.g.{.q.",
"9.k.T.oX'.'.'.{.{.k.q.9.<.      + y # # 5 # l ^ o.o.^ o.o.o.o.o.o.o.o.o.o.^ o.o.^ l # # 5 5 u +       y.$.$.$.*.*.q.{.{.K.k.k.K.",
",.k.T.k.'.T.Y._.{.{.q.<.H.      + y # # # # n ^ o.o.^ o.o.o.o.o.o.o.o.o.o.^ o.o.^ z # 5 # 5 y +     & {.a.$.$.$.$.8.'.'.y.8.8.k.",
"$.k.k.k.{.'._._.).{.8.8.o o o & *   5 7 y y 0 o 5 # ^ ^ ^ o.o.o.o.o.o.^ ^ ^ # # o 0 y y 7 5       o o o c.*.*.q.a.+.).T.k.k.+...",
"k.k.q.q.y.'.).).).).k.8.o # # y 0     = 4 X 8 y y y o # # # # # # # # # # o y y y 9 o 4 =   . 8 y # # o c.q.q.k.c.).T.T.{.{.{...",
"{.k.$.8.K.{.{.Y.oX{.).k.o # # y q   & = 4 o 8 y y y X # # # # # # # # # # o y y y 9 o 4 ;     8 y # # o '.).T.'.{.T.T.).{.{.k...",
"'.{.k.y.y.+.'.T.{.{.T.{.o y y y q X   &     = 4 4 4 - 5 # y y y y y y # # o 4 4 4 ;       . o 9 y y y o '.{.T.+.{.T.T.6.c.{.T...",
"'.'.'.'.T.T.'.{.{.y.+.).o y y y q + + + .   * ; 4 4 - < , a a a a a a 2 2 > 4 4 = &   X O @ # 7 y y y o y.y...O.'.{.c.| ..{.oX'.",
"'.y.'.T.'.).Y.Y.{.+.).).o y y y e # y q X     & 4 4 4 4 4 4 4 4 4 4 4 4 4 4 4 4       o $ # 5 q y y y o 6.y...O.y.'.{.X.| +.'.'.",
").'.{.{.k.c.).T.{.oX{.{.o G G y r # y e o # # 6           4 4 4 4 4 4           5 5 5 X 9 y 5 7 r G G o y.).| ..).T.{.T.X.{.{.y.",
"T.Y.T.{.k.8.k.{.oXT.( ( o Z V l j # y q $ 7 7 7 % % . o O s p p p s p O O o 0 q e e e # 7 y 5 f Z u u # + o O.6.).T.T.).oXT.'.8.",
"T.T.y.8.q.q.K.{.).).o o # y y G B # y r # y y y y y o # # y y y y y y 5 5 o y y y y y 5 7 y 5 f G y y # o o ).).T.{.oX{.'.T.).y.",
"T.c.6.8.<.<.*.q.{.$Xo o y y y G Z y y r # y y y y y o # # y y y y y y # # X y y y y y # 7 y y z G y y y o o ).).T.'.k.k.y.'.).{.",
"'.].8.9.,.<.&...$.8.o o y y y G Z y y r # y y y y y o # # y y y y y y 5 # o y y y y y # 7 y y z G y y y o o g.n.k.q.*.*.8.k.{.c.",
"{.y.K.i.$.,.O...$.O.o o y y y y y Z G B # y y y y y # y y y y y y y y y y # y y y y y # e A Z m y y y y o o q.k.q.*.<.*.*.G.k.k.",
").T.'.@Xq.q.*.O.O...o o y y y # 6 G G Z y G G G y y y y y y y y y y y y y y y y G G G y n Z G h # y y y o o *.q.B.*.a.*.8.8.8.{.",
"{.'.{.{.k.{.{.c.....o o y y y # 6 G G Z y G G G y y y y y y y y y y y y y y y y G G G y n G G N # y y y o X c.k.g.n.c.c.k.$.$.y.",
"'.'.T.)._.T.).{.k.k.o o # y y # 6 y G Z y G G G G G y y y G G G G G G y y y Z G G G G y z Z y r # y y # o o c.T.).).T.).{.k.8.y.",
"{.y.T.).).).T.T.{.{.o o # y y # # y G Z q G G G G G y z B G G G G G Z B V y G G G G G 7 e G y e # y y # o o ).c.T.T.).).{.{.k.k.",
"+.'.{.oXT.T.+.T.{.{.+ X # y y # # y Z Z 5 G G G G G y G G G G G G G G G G y G G G G Z # w G y e # y y # o o 6.6.X.'.{.).).'.).'.",
"'.y.{.T.T.X.| X.{.+.+ o # y y # # y y y 5 G G G G G y G G G G G G G G G G y G G Z J Z # 6 y y e # y y # o o O.O...X.).{.{.].{.{.",
").{.{.{.{.X.| X.'.'.d s # y y # # y y y # G G m G G q G G G G G G G G G G 7 G G u m Z # 5 y y r # y y o | ..O.*.O.X.{.{.i.8.y.'.",
"T.'.6.6.k.).T.T.oXT.+.O.o r y # # y y y 5 Z Z y G G # G G G G G G G G G G # G G y u A # 6 y y r # y y o O.*.$.$.8.+.6.y.@Xy.).{.",
"'.T.....+.T.).).{.+.O...o # 5 5 # y y y # y y y G G # Z G G G G G G Z G Z # G G y y y # 6 y y r # # # o <.$.$.$.k.T.'.{.'.T.T.oX",
"'.T.O...+.y.@XK.8.O.....X # # 6 7 e y y # y y y B m 5 G G n z z z z z G G 5 l l y y y # 6 y 5 7 r 5 #   <.$.,.$.'.T.{.{.y.'.).'.",
"T.'.{.'.{.{.K.8.O...{ ;.. # # y y # y y # r y y y y # G G y y y y y y G Z 5 y y y y y 5 5 y 5 6 y # #   *.*.q.O.'.{.oX].8.k.{.'.",
"| '.{.'.{.y.$.$.....;.P.  # # # 5 X y y 5 y y y y y 6 y y y y y y y y y y # y y y y y # 6 y o o # # #   $.O.$.c.'.@X{.y.$.{.).{.",
"..{.T.+.k.8.$.,.$.O.*.K.  @ 5 # # o y y # y y y y y # y y y y y y y y y y # y y y y y # 6 y o o # # #   ......O.{.{.{.{.k.{.{.y.",
"+.'.'.'.k.$.6.$.$.,.*.k.o     5 # o y y y 5 5 y y y # r y y y y y y y y y # y y y y # y y y o o #     o O.O.O.X.y.+.y.{.'.{.'.y.",
"T.T.)._.c.+.+.y.8.9.8.{.o         o y y y + o y y y # # # y y y y y y 5 # # y y y r o y y y o o       o oX_.).{.c.a.*.k.).).{.8.",
"T.T.).Y.).T.).{.'.+.{.{.o .       o y y y + o y y y # # # y y y y y y 5 # # y y y y o y y y o o       o Y.Y.Y.).c.6.O.O.k.y.{.y.",
"T.).O.+.'.Y.).T.T.).).).F < o       # # y $ o y y y o # # y y y y y y 5 # o y y y y X y y #       o o H ).T.'.).+.+.| | k.8.{.'.",
").+.| ..T.).T.).).).X. .F < o X X   $ @ p + o q y y o # # y y y y y y 5 # o y y 6 7 o 3 3 .     # o o F H H y.8.k.{.6.+.q.9.@X{.",
"T.+.X.X.T.'.k.q.q.k.W G F 1 o # #       4 o o # e y o # # r y y y y y 5 5 o r y # 5 o 4 4     . # o o F F H +.6.+.'.{.{.8.*.k.y.",
"T.'.T.{.T.'.8.8.*.k.W F H 1 o # # #           4 4 4 5 o o # # y y y # o o # 4 4 4 4         # # # o o F H F {.T.T.T.Y.{.6.6.y.'.",
"oXT.T.T.).T.6.a.q.y.Q F F s < @ @ 7 . . o .   ; > 4 , : > , , i a a 2 : > 2 4 4 = *   @ @ X r r o B D H H F {.).{.).).{.'.y.{.k.",
"X.T.oXY.T.T.c.c.{.T.W F F H J o o y o o # X     > 4 4 4 4 4 4 4 4 4 4 4 4 4 4 4       5 5 o y y o F F F H F T._.{.'.{.{.{.'.{...",
"oX'.{.).T.{.O.| O.).*.O.F F F o o # o o # o o # X                               # # o # # o # # o F F F {.oX'.{.c.8.K.k.'.oXT.X.",
"{.y.6.{.{...O.| +.$X| | D F G 1 1 # o o # 8 8 @ o o o X . O O O O O O X X @ @ @ + + e # # o o o S F F F T.T.T.{.k.$.$.8.y.'.{.'.",
"8.O.....X...O.6.).T.c.| F F F D D o o o # r y o # # # + o # # # # # # + o # # # o o y # # o o o F F H H X._.T.+.k.*.<.8.'.T.+.6.",
"8.O.........+.).oX{.n.| | Q F D F F o o o @ # o q y y y y o o y y y o e y y y y o o # o o o F F F F F '.oXT.X...O.q.9.{.T.+.| ..",
";.0.{ | ..X.+.T.).{.c.| O.Y F D F F o o o @ 5 o q y y y y o o y y y o q y y y y o o # o o o S G F F H {.T.).O...+.k.k.{.).T.X...",
"w.;.;.O.8.{.'.'.oXT.c.| ....| O.$XF F F H i o o X o 5 e y o o y y y o q y 5 + o o o o F F F S S ....+.'.Y.T.).k.O.6.c._.Y.).O.k.",
"*.*.$.$.8.k.@X{.+...| 6...X.).R.'.8.8.O.F F F F F F o o o o o o o o o o o o b F F F F F S O.O.O...$.y.{.Y.Y.T.'.O.O.O._.).).O.| ",
"q.*.$.$.,.$.9.{.+.X...+.).+.).+.@X..&.O.F F F F H G o o o o o X o o o o o o b F F F F F F ,.&.O.8.G.{.Y.).'.k.).c.X.+.T.).oX{.{.",
"q.q.<.<.G.<.9.{.).+.c.k.T.Y.Y.+.y.6.| O.....T.T.~ F F F F F F F F F F F F F F F T.'.{.{.'.y.k.k.k.'.{.K.k.*.*.q.{.Y.{.{._.oX{.oX",
"$Xq.G.<.8.8.G.y.{.k.8.q.y.T.T.).'.T.+.{.X...i.8.] ~ ~ ~ / / ) _ ( ' [ [ { { { { {.).{.'.{.).k.+.).T.q.y.k.q.<.<.k.'.{.k.{.y.y.y.",
"H.q.8.$.k.{.K.k.T.'.G.$.8.y.i.y.T.'.'.'.'.k.y.y.q.k.$.O.).{.y.@X{.i.k.y.{.{.'.{.k.c.{.{.{.{.c.6.{.{.k.k.k.k.*.q.k.k.q.*.q.$.<.G.",
"c.q.q.k.y.).k.k.'.'.c.k.k.y.y.{.T.'.T.'.{.{.).c.k.'.T.T.{.'.y.8.i.8.k.$Xk.{.k.k.k.a.k.8.'.{.k.6.k.).8.k.k.k.q.q.n.k.*.*.k.q.q.8."
};
