/* XPM */
static char *_dba0d43a6454a03a89405aa3f6ec7f8uQO2RkzFnG1SNENN[] = {
/* columns rows colors chars-per-pixel */
"64 64 176 2 ",
"   c #BE843F",
".  c #BC883E",
"X  c #BF8442",
"o  c #BF8942",
"O  c #C18545",
"+  c #C38C46",
"@  c #C28549",
"#  c #C28648",
"$  c #C38648",
"%  c #C38748",
"&  c #C38649",
"*  c #C38749",
"=  c #C2854B",
"-  c #C3864A",
";  c #C2874A",
":  c #C3874A",
">  c #C3864B",
",  c #C3874B",
"<  c #C48649",
"1  c #C48749",
"2  c #C6854B",
"3  c #C4864A",
"4  c #C4864B",
"5  c #C4874B",
"6  c #C5874B",
"7  c #C3874C",
"8  c #C3864D",
"9  c #C4864C",
"0  c #C5864C",
"q  c #C4874C",
"w  c #C5874C",
"e  c #C4874D",
"r  c #C5874D",
"t  c #C3874A",
"y  c #C18949",
"u  c #C28848",
"i  c #C28948",
"p  c #C38948",
"a  c #C38849",
"s  c #C28949",
"d  c #C38949",
"f  c #C28A48",
"g  c #C38A48",
"h  c #C28B48",
"j  c #C38B48",
"k  c #C38A49",
"l  c #C28B49",
"z  c #C38B49",
"x  c #C2894A",
"c  c #C28A4A",
"v  c #C38A4A",
"b  c #C28B4A",
"n  c #C28A4B",
"m  c #C48848",
"M  c #C48849",
"N  c #C58A48",
"B  c #C48B48",
"V  c #C58B48",
"C  c #C48A49",
"Z  c #C48B49",
"A  c #C4884A",
"S  c #C5884A",
"D  c #C4894A",
"F  c #C4884B",
"G  c #C4894B",
"H  c #C48A4A",
"J  c #C48B4A",
"K  c #C58B4A",
"L  c #C48A4B",
"P  c #C48B4B",
"I  c #C38C48",
"U  c #C38D48",
"Y  c #C28C49",
"T  c #C38C49",
"R  c #C38E49",
"E  c #C38F49",
"W  c #C28C4A",
"Q  c #C38C4A",
"!  c #C28C4B",
"~  c #C38C4B",
"^  c #C38E4B",
"/  c #C48C48",
"(  c #C58C48",
")  c #C48D48",
"_  c #C48C49",
"`  c #C58C49",
"'  c #C48D49",
"]  c #C58D49",
"[  c #C48E48",
"{  c #C58E48",
"}  c #C48F48",
"|  c #C58F48",
" . c #C48E49",
".. c #C58E49",
"X. c #C48F49",
"o. c #C58F49",
"O. c #C68F48",
"+. c #C78E49",
"@. c #C68F49",
"#. c #C48C4A",
"$. c #C48D4A",
"%. c #C58D4A",
"&. c #C48D4B",
"*. c #C58D4B",
"=. c #C68C4A",
"-. c #C68D4A",
";. c #C78D4A",
":. c #C78C4B",
">. c #C48E4A",
",. c #C58E4A",
"<. c #C48F4A",
"1. c #C58F4A",
"2. c #C48E4B",
"3. c #C58E4B",
"4. c #C78E4A",
"5. c #C68F4A",
"6. c #C1884C",
"7. c #C3884C",
"8. c #C5884C",
"9. c #C78C4C",
"0. c #C58E4C",
"q. c #C68F4D",
"w. c #C48C49",
"e. c #C88E4E",
"r. c #C39145",
"t. c #C29245",
"y. c #C29345",
"u. c #C39046",
"i. c #C39146",
"p. c #C39147",
"a. c #C39246",
"s. c #C59044",
"d. c #C49045",
"f. c #C59145",
"g. c #C49046",
"h. c #C59046",
"j. c #C49146",
"k. c #C59146",
"l. c #C49047",
"z. c #C59047",
"x. c #C49147",
"c. c #C59147",
"v. c #C69046",
"b. c #C69146",
"n. c #C69047",
"m. c #C69147",
"M. c #C49247",
"N. c #C69247",
"B. c #C49146",
"V. c #C39048",
"C. c #C29148",
"Z. c #C39148",
"A. c #C39149",
"S. c #C39248",
"D. c #C3904A",
"F. c #C49048",
"G. c #C59048",
"H. c #C49148",
"J. c #C59148",
"K. c #C49049",
"L. c #C59049",
"P. c #C59149",
"I. c #C79048",
"U. c #C69049",
"Y. c #C49248",
"T. c #C59248",
"R. c #C49249",
"E. c #C69249",
"W. c #C5904A",
"Q. c #C4914A",
"!. c #C5904B",
"~. c #C6904A",
"^. c #C7914A",
"/. c #C59149",
"(. c #C89049",
"). c #C89049",
/* pixels */
"x q.x  .V [ h.h. .n n ~ q. .G. .J J i ~ G.^. .~ h.G.~ G.h.G. .J J ~  . .i J o X O i  . .i J J O X O X o ~ r.~ x h.G. .q.J  .G. .",
" .G.h.V O O [ h.J 7 % 7 % x J J ;.V i + o o i ~ G.G. .G. .V x J x O O O O  .J J V J + x x 3 3 O X X o O h.h.h. .h. .x J  .;.f.O ",
"h.h.h.O O o [  .% 0 0 0 $ O O O O V O   o X O J J 3 J ;.x x x 0 3 O O O X % 3 O 3 J 0 3 3 3 % x + G. . .+ r.~ x J J % % m O O o ",
"r.r.+ X i [ i q.3 3 0 x @ $ O       O O o i x  .3 3 V J % J 0 8.0 J J V % 3 7 % 0 3 3 J J J  .G.S.S.G. .~ G.~ n J 3 7 7 X o   O ",
"+ y.+ o + h.G.~ % 3 x 3 @ 3 3 ;. .i i [ h.G.r.S. . .G. .8.n 8.8.8.r.h.T. . . .q. . .J  .G.r.h.f.r. .s.f.v.h.G.^  .V % 3 X o O i ",
"G.G.+ i h.h.r.h. .x q. .J ;.x x  .G.h.h.h.r.r.r.r.h.h.G. .J x x J r.y.y.r.h.G.G.G.G.h.h.h.h.O     X   o O V G.+ + i X     o ;. .",
"G.[ o o +  .h.h.h. .S.S.h.G. .i i ~ M.h.h.M.h.G.S. .i h.[ r. .G.G. .G.G.y.G.G.+ r.G.G.h.h.r.    O O O O O O J J r.+     [  .V V ",
"^.x X X x  .G.h.h.h.M.G.G.G.v.;. .G.h.M.M.h.G.J  . .x h.h.h.h.h.h.J [ T.G.T.G.o o G.G.h.r.r.+ i J J [ [ [ 3 7 3 r.r.+ [ h.+ V  .",
" .x % 3 3 J h.h.h.[ i i o O O O X o o x  . .G.~ ~ G.G.y.r.h.h.[ h.[ [ v.f.h.M.y.h.r.r.h.f.M.h.x 7 7 n 0 3 n 3 J G.G.h.T.G.i V  .",
" .n 8.J 3  .h.~ O   X X X X O O O O X X J  .h.G.+ r.h.r.S.+ J J [ O [ O O + h.h.h.+ r.h.h.M.~ x n 0 7 3 % % 3 3 G.G.M.h.G.x 3 8.",
"J 3 3 i [  .x % O O O % % % 3 % 3 J % J 3 x  . .G.h.h.~ q.x % % % O V O X   O ~ h.h.h.h.h.M.G. .x J  .:.J J 3 x G.G.T.h. .J J 3 ",
"J 3 q.G.r.i 7 0 J % 0 % 7 % 7 % 7 7 7 7 3 3 % x S.G.x x G.G. .[ o 3 3 3 O O V x S.r.h.h.M.T.G.M.G.G.G.G.G. .[ V G.G.r.h. .J 3 3 ",
"[ x  .G. .J 0 0 % 0 7 7 7 % 7 7 % % % % % % 0 J n  . .x S.Q.S.S.i  . .i % % 0 % [ h.M.h.M.h.M.h.h.h.M.T.[ [ h.I.G.G.h.G. .7 % 7 ",
"[  . .[  .3 0 % % 0 7 n 7 7 % 7 7 7 7 7 7 7 % 3 8. .G.G.T.h.S.S.h.h.h.[ q. .J J [ r.h.M.v.M.h.M.h.G.h.r. . . .J G.G.G.G.J % % 8.",
"~ G.h.+  .J J x 7 0 7 0 0 0 0 0 0 7 % 7 7 8.x x  .G.h.G.+ h.f.f.h.h.M.h. .G.h.G.h.h.h.h.M.M.h.h.+ x G.G.J 3 3 3 x  .h.h.[ [  . .",
"x S.h.+ i  .J J x 7 8.0 8.x 7 7 7 x 8.J q. . . .G.h.M.G.h.h.M.f.h.h.h.M.[  .h.h.h.h.h.M.M.h.G.~ G. .h.~ 8.3 3 3 3  .G.h.+ G.).J ",
"x  .y.S.S.~ h.G.G. .J 8.8. .^.^.^ ~ [ h.h.+ h.G.r.S.h.G.+ S.M.h.G.G.G. . . .G.h.b.M.v.M.h.x x J  . .G.S.% % 7 0 7 J G.G. .8.G.q.",
"0  .r.h.S.r.y.M.G.G.J 3 e. .o r.h.S.h.[ h.h.y.h.y.h.G. .~  .h.N. .x  .^.J x ~ h.f.v.M.h. .J x ^.G.G.S.G.V m 7 % % x G.G. .x ~ ~ ",
"x q.[  .G.S.T.M.h.G.x J J  .h.T.h.h.G.[ J  .S.y.h.G.h.G.G.G.h.M.h.V G.S. . . .h.h.M.h.M.h. .).G.S.T.G.h.[ V 3 J J [ h.h.[ J + o ",
"~  .V x ~ G.G.h.h.h. .x J  .i + G.G.G.J %  .S.G. .r.h.h.G.T.M.h.h.h.S.r.h. .S.h.f.b.M.h.h.h.v.M.h.G.G.r.[ J J  .[ h.y.r.h. .[ o ",
"G. .% x  .G.G.r.G.G.h. .J 3 % J ~ G.h.[  .G.h. .x x h.M.h.~  .h.h.h.G.S.S.~ h.G.h.M.h.h.h.h.M.G.M.h.M.r.G.r.h.G.G.r.r.h.G.h. .o ",
"S.G. .~  .+ G.S.G.G.r.G.q.3 3 x ~ r.h.h.q. .G.G.~ + r.M.S.x i x h.h.M.G.S.^ x  .G.h.M.h.G.h.h.M.h.M.G.S.T.G.+ + G.r.h.i [ G.+ o ",
"S.~ G.S.r.S.S.r.G. .+ G.h.J x x S.+ s.o . O i h.h.T.h.h.V % 0 8. .G.h.y.h.G.J V V G.h.M.G.G.h.h.M.h.T. .~ ~ o O  .G.+ o o  .G.S.",
"S.+ ~ r.h.r.G.r.G.h.h.h.h.h.~ G.G.+   o O O   [ M.h.h. .x % 0 3 % ~  .G.h.h.x x x G.T.v.+ J G.[ h.h.G. .o q.X X ~ h.h.O   + r.q.",
"r.S.G.G.G.[ G.r.G.G.).G.h.r.y.r.G.h.h.G.G.[ O r.f.h.h.h.O O 3 3 7 3 3 J  .q. .J V [ r.G. .q.q. .G.h.M.h.+ [ X o h.r.G.+ + G.G.x ",
"r.S.h.G. .i G.G.S.r.i + h.r.r.G.S.~ J  . .G.h.h.r.h.r.~ O O 3 3 3 O 3 % O O J 3 V J x  .n 8.J O ~ h.M.M.h.r.O + h.h.r.G.r.r. .+ ",
"r.r.~ V x J q.G.h.h.[ [ r.+  .8.x % 0 % O x G.r.S.G.h.[ i 3 3 J 3 % 8.% O O 3 J 3 V J J x J J V [ h.M.h.h.h.h.h.r.h.h.G.G.S.G.~ ",
"S.+ x % 0 3 J 8.G.G.h.h.h.G.8.% 3 7 0 7 % x S.G.y.G.h.h.~ x x x x x J q.+ h.;. .;. .[ h. .G.[ h.h.h.h.M.h.M.h.h.y.G.G. .~ r.h.G.",
"S.q.x 0 7 7 O O x x 3 V J J @ 0 J 3 J 3 2 J  .G.h.T.y.r.r.S.~ h.T.G.G.G.r.y.h.h.h.M.f.f.h.h.f.[ h.G.G.h.f.h.[ I.[  .3 3 x J [ [ ",
"h.~ q.n 7 % O X J O @ O O O X O x  . .J 3 0 J G.M.G.h.S.S.S.S.r.G.G.G.x S.~ G.M.f.M.h.M.h.h. . .G.x + h.[ V V [ J 3 3 3 J J [ [ ",
"h.r.S.^.8. .3 O O X O X O O X O i q.~ J 3 7 8. .h.h.M.G.G.S.S.~ x  . . .G.h.T.h.h.h.h.h.h.G.J V  . .x r.h.J 3 J :.3 V 3 J % x G.",
"h.S.G.G.G.G.G.[ O X O O @ @ @ = % n x J 0 n ^ G.M.G.h.G.S.r.r.r.[ [  .).h.[ I.[ i h.G.G.G.G.~  .).h.h.h.f.[ [ [ I.I.[ [ q.% %  .",
"G.r.h.G.h.M.h.M.[  .~ q.J 3 % 3 7 7 7 J 7 x h.f.h.+ i i ~ r.S.+ + h.h.h.h.. .     o M.o + h.h.h.r.M.h.h.h.h.M.T.h.M.h.M.h. .V J ",
"G.~ r.h.M.h.M.h.h.G.h.G.). . . .% x % x x  .r.f.h.i o o + S.S.G.h.h.h.h.h.+ o + + r.M.+ r.y.h.h.y.r.h.M.h.h.M.G.M.h.M.h.h.G. . .",
"+ S.h.h.h.f.O r.S.G.h.M.h.h.M.G. . .G.~  .G.h.M.h.h.V % x ~ G.).h.[ [ o [ v.b.f.[   o J G. . .[  .V h.[ i O O i + r.h.M.h.r.h.S.",
"h.~ h.h.f.o   o S.+ y.M.M.h.h.M.h.h.h.h.h.h.M.h.h.h.[ x ~ G. . . .J O O [ v.M.h.J X X O J 3 J m O X o   X X o %   O h.h.G.q.G.G.",
"r.G.G.G.G.O . o S.S.h.o r.h.h.h.G.G.G.G.h.G.h.h.M.h.G. .V V V 3 % 7 n 8.V  .G.h. .O X X @ = @ X X O O X X X @ % o o h.h.^ x + S.",
"r.G.i i h.h.r.r.S.h.~ o O ;.G.h.S.G.h.M.h.).O + G.+ i O O O O 3 8.J 8.8.V G.h.G.x % O O O X X X X X X O @ @ % % % r.i ~ ^.~ h.G.",
"r.~ o X + h.G.G. .i O o O O V  .e. .G.G.h.G.G.).O O O X   O O O % 8.^.G.G.G.h.G.x 0 7 % X X O % O 3 3 J 0 % 7 7  .S.~ h.S.r.S.G.",
"S.r.O o + ~ ^. .J O X X X O O O O J G.T.h.h.G.v.  o i O O   O [ q.G.h.G.h.r.S.G.7 % 7 0 @ @ % 7 3 3 % 7 7 7 = 0 ~ S.G.G.~ G.r.G.",
"+ S.G.S.G.~ ~ x X X X O O x i O O % x + G.h.S.G.G.+ G.G.G.i . [ G.h.h.M.G.h.G.G.S.x % 7 % 7 7 8.7 7 7 3 3 3 3 J G.S.S. .x  .h.G.",
"  r.G.S.^.^ % % X X 7 8.G.G.h.[ V x i ~ G.x x q.G.y.r.S.h.+ + h.G.+ r.h.+  .T.T.q.x x % 7 7 7 % 7 % % O O O V [ G.G.G.~ x G.h.S.",
"o  .S.+ q.n 7 0 % % 3 q.G.y.G.G.[  .+ S. .V x  .G.M.y.G.h.G.h.G.h.T.h.G.+  .G.h.G. .x x % 7 3 3 % % O O X X . O G.G.G.G. .G.G.~ ",
"+ G.[ r. .x x % % 0 3  .G.G.G.G.h.G.h.h.G. .[  .T.G.y.G.h.r.T.h.h.y.r.G.h.G.G.G.h.G. .x % x x J X X   o O O O O ~ + ~ h.y.h.G.x ",
"r.r.f.r.[ + + ~ x n x G.h.h.[ + O V [ [ G.G.h.G.G.G.T.G.r.y.h.h.M.M.~ ~ + r.r.G.h.r.G.G.~  . .G.x o + r.G.T.h.G.G.V V [ G.h.G.x ",
"f.h.h.f.h.h.h.h.h.h.G.G.h.+ i O   m [ [ h.h.h.G.G.G.^.+ h.r.r.[ G.h.% n q.r.G. .G.r.r.G.~ S.E.v.G.h.h.r.y.r.y.h.h.O O O  . .G. .",
"h.h.O + h.M.h.h.f.b.h.M.h.G.).i O   X [ r.G.M.h.G.G. .h.G.S.J J h.r.% 7 ~  .x J ^.G.G.h.. . M.M.h.M.h.h.y.S.S.G.h.+      .x ~ h.",
"h.+   o h.M.h.M.v.h.M.h.h.~  . . .O o o h.r.S.T.h.G.h.[ i % % J h.y.x  .r. .J x ^ G.T.G.+ + T.G.M.G.h.h.T.G.~ i q. .i + J n ^.S.",
"h.+ o O r.S. .J J  .h.h.T.+ S.^ % % X i + h.h.h.~ ~  .i   X X ~ S.S.r.r.G.G.J x G.M.M.M.h.M.G.h.G.J  .h.r.G.S.i + S.h.G.J x  .~ ",
"r.r.r.h.h.S.x x J J G.h.h.T.~ n 7 n % O + ~  .+ + x J i o o o J G.S.r.~ G.G. .q.G.h.M.h.M.h.M.y.G.J  .h.r.G.^.~ h.r.M.G.i i + S.",
"S.r.r.S.h.G.V [ V + G.v.h.h.~ J 7 % O o O % J X O O J J ~ h.h.G.G.G. .q.x G.G.G.~ r.G.T.h.M.h.y.[ 3 J G.h.S.G.h.h.h.G.G.+ ~  . .",
"r.r.S.r.r.h.h.h.h.+ x [ G.h. .J 7 x 8.+ o % 0 O   [ ;.h.G.r.h.h.G.n % J x ~  .r.G.G.M.h.M.h.h.y.h.J J G.S.r.r.h.G.S.G.G.G.S. .o ",
" .+ [ h.h.h.O   + h.O O o i [ J J x  .h. .J J G.[ [ h.M.M.M. . .S. . .J  .G. .x x J  .h.h.M.h.M.G.3 J G.G.r.S.G. .x x  .S.S.r.o ",
" .J V  .~ o   O O G.O   X o v.V O   O h.h.S.G.h.h.I.~ h.h. .J ;.~ + h.G.h.[ i O X O V [ h.h.M.y.h.J [ G.h.S.S.G.;.x 8.x ~ S.h.~ ",
"i O X X o   O O h.M.h.O O [ [     O i x G.r.G.T.+ ~ + + G.J 3  .h.G.r.r.;.V O O   O O   h.G.h.h.h.G.h.h.h.h.h.i  .3 3 J S.r.+ i ",
"i O o X o X V [ G.M.h.    O   O O  . .x 0  .M.h.+  .G.h.). . . .h.[ S.G.J @ O $ X X X   h.h.h.h.G.G.r.h.h.r.o   O V J  .h.+   o ",
"3 @ X X o o r.G.M.h.+   O O   O [ G.G. .J x h.M.M.G.M.h.G.G.h.G.h.+ ~ ~ x J J J  .V O O O h.h.h.~ ~ G.G.h.h.O o + G.;.G.r.r.O O ",
"0 @ O O x  .S.r.M.h.[ O O       G.G.G.G.G.G.G.h.h.M.h.h.h.S.+  .h.S.r.~ x x  .[ h.[ i o O O O O o o ~ S.r.h.[  .O i  .G.y.h.o [ ",
"7 7 % 7 3 J G.G.[ o   O O   I.[ h.x J O i  . .h.M.h.r.r.G.G.J  .S.y.G.q.J i  .h.y.~ x O O O O O X O  .h.y.y.r.r.O o i h.M.).O   ",
"x % % 7 7 % 8. .[     V h.r.h.+ ~ % O O O O  .h.M.G.[ ~ x o o  .G.h.r.G.;.x ~ G.G.G.^. .[ V % O 3 8.G.M.G.h.[ h.h.o + r.h.G.G.G.",
"^ 8.8.7 0 0 n  .h.[ ~ G.r.y.r.+  .O o O X X r.h.h.V O O % % % J G.h.[  .I. .J [ h.S.G.G.S.q. . .[ G.G.G. .J 3 J G.y.G.h.M.M.h.S.",
" .J x 8.x J n  .h.G.x J ~ r.h.h.S.+ + G.o o q.i  .J O O i x ~ S.G.G.G. .h.h.G.h.G.h.G.S.r.G. .h.[ h.J ^ ~ 8.3 8. .G.G. .T.~ ~ ~ ",
" .J 3 %  . . .~ r.S.8.% x ~  . .r.S.S.G.x ~  .+ J [ % i h.G. .G.q.q. . .G.G.h.G.G.[ G.G. .h. .i G.G. . .h. .3 J  . .J J  .3 3 J ",
"[ J J q.G.G. . .S.G.[ [ V + ~  .S.r.+ S.r.h.h.[ [ [ [ r.G.S.+ x x x  .G. .G.G.G. .V  .x  .G. .+ G.+ i  .[  .V J I.J O 3 ;.J 3 x "
};
