/* XPM */
static char *_37e37bc4ecf4375de5343cffb586d42OGF4fbDqb5lT2rq8[] = {
/* columns rows colors chars-per-pixel */
"64 64 206 2 ",
"   c #030203",
".  c #0A0202",
"X  c #0E0907",
"o  c #04040B",
"O  c #06090C",
"+  c #0D0A0A",
"@  c #100401",
"#  c #130C0A",
"$  c #1F0C06",
"%  c #080A18",
"&  c #100F10",
"*  c #0F1117",
"=  c #13151D",
"-  c gray12",
";  c #11141A",
":  c #32110A",
">  c #251C1A",
",  c #251D17",
"<  c #371A10",
"1  c #2C201A",
"2  c #3B2D1D",
"3  c #191B24",
"4  c #161D28",
"5  c #1F1F32",
"6  c #1E212C",
"7  c #292828",
"8  c #222226",
"9  c #382E26",
"0  c #212531",
"q  c #2B2E3D",
"w  c #222C3D",
"e  c #2D333A",
"r  c #393631",
"t  c #5B341C",
"y  c #5D361A",
"u  c #582F1C",
"i  c #62361D",
"p  c #61381C",
"a  c #433724",
"s  c #483926",
"d  c #4A3929",
"f  c #473929",
"g  c #583621",
"h  c #543824",
"j  c #7A4217",
"k  c #76441C",
"l  c #7B441B",
"z  c #55422E",
"x  c #544231",
"c  c #5E4D3A",
"v  c #5B4837",
"b  c #4D463A",
"n  c #774320",
"m  c #7B4620",
"M  c #7F4A27",
"N  c #7B502C",
"B  c #634B35",
"V  c #634A39",
"C  c #6B5239",
"Z  c #725434",
"A  c #2E3B47",
"S  c #333A47",
"D  c #36444F",
"F  c #354453",
"G  c #3A4657",
"H  c #3F4D60",
"J  c #3F5162",
"K  c #3D5769",
"L  c #5F5140",
"P  c #41445A",
"I  c #424C57",
"U  c #4D4D51",
"Y  c #715A43",
"T  c #695D4A",
"R  c #7F6441",
"E  c #78644E",
"W  c #484E64",
"Q  c #405262",
"!  c #4C546C",
"~  c #4D5E6D",
"^  c #4A5568",
"/  c #5A5961",
"(  c #515F6C",
")  c #535968",
"_  c #4D5372",
"`  c #495E70",
"'  c #505571",
"]  c #575D7C",
"[  c #51606C",
"{  c #4B657A",
"}  c #4C6679",
"|  c #556C7E",
" . c #566A7C",
".. c #61707A",
"X. c #646D74",
"o. c #B7621F",
"O. c #834B26",
"+. c #8C4E25",
"@. c #874D29",
"#. c #8C5026",
"$. c #945324",
"%. c #9C5725",
"&. c #9E5927",
"*. c #9D5729",
"=. c #9D5929",
"-. c #955328",
";. c #955A30",
":. c #A15725",
">. c #A35A25",
",. c #A95D27",
"<. c #A25B2A",
"1. c #AA5F29",
"2. c #B25E26",
"3. c #97713A",
"4. c #AD6026",
"5. c #AC612B",
"6. c #A7602B",
"7. c #B66526",
"8. c #B96526",
"9. c #B6652B",
"0. c #B8652A",
"q. c #B46833",
"w. c #87694A",
"e. c #846747",
"r. c #9B7242",
"t. c #917551",
"y. c #937855",
"u. c #A67C4B",
"i. c #A27D44",
"p. c #BE843F",
"a. c #A8804B",
"s. c #BE8442",
"d. c #BF8942",
"f. c #B98B57",
"g. c #A6885B",
"h. c #C18544",
"j. c #C38C46",
"k. c #C38749",
"l. c #C3874B",
"z. c #C2854A",
"x. c #C4864A",
"c. c #C4874C",
"v. c #C3874A",
"b. c #C38949",
"n. c #C38B48",
"m. c #C28A4A",
"M. c #C48B48",
"N. c #C4894A",
"B. c #C38D49",
"V. c #C48C49",
"C. c #C48F49",
"Z. c #C48D4A",
"A. c #C58E4A",
"S. c #C68E49",
"D. c #C48C49",
"F. c #C88E4E",
"G. c #C39246",
"H. c #C59147",
"J. c #C59146",
"K. c #C49146",
"L. c #C39149",
"P. c #C59048",
"I. c #C59149",
"U. c #C59148",
"Y. c #C89049",
"T. c #C39A63",
"R. c #C59A68",
"E. c #C9A36E",
"W. c #5B5F80",
"Q. c #536D82",
"!. c #5B778D",
"~. c #577993",
"^. c #5B7991",
"/. c #587691",
"(. c #496781",
"). c #646A8C",
"_. c #6A6C85",
"`. c #6B7F8E",
"'. c #637587",
"]. c #636A92",
"[. c #6B7F91",
"{. c #637B91",
"}. c #787C80",
"|. c #6A808E",
" X c #6B869B",
".X c #6C8DA6",
"XX c #6B8DA9",
"oX c #678DA8",
"OX c #728DA2",
"+X c #7C93A7",
"@X c #7E9EB3",
"#X c #8B8B8F",
"$X c #898A94",
"%X c #839DB2",
"&X c #89A3B6",
"*X c #87A4BA",
"=X c #8BA4B9",
"-X c #86A3B7",
";X c #96A8B7",
":X c #ACC0CE",
">X c #B3C6CF",
",X c #B6C7D3",
"<X c #C8D0D6",
"1X c #D7DAE4",
"2X c #D9DBE4",
"3X c #C9DAE6",
/* pixels */
"m.F.m.B.j.D.P.C.C.m.m.B.Z.C.C.F.D.x.z.B.P.I.m.B.P.C.B.C.J.P.C.C.m.B.F.B.j.m.s.s.h.j.m.C.j.c.D.h.s.u.h.h.j.B.B.m.j.P.C.F.m.C.C.m.",
"C.C.J.j.h.h.j.J.C.c.c.c.c.j.k.m.Y.C.j.C.j.d.j.j.P.P.C.P.C.j.D.x.c.h.h.h.h.F.C.j.D.C.j.m.m.z.x.h.s.s.p.J.J.J.P.C.Y.P.j.D.C.Y.j.j.",
"H.J.J.h.h.h.C.C.z.c.c.x.z.h.h.h.h.k.h.s.s.s.s.m.x.x.D.Y.D.z.D.c.c.h.h.h.s.m.z.h.x.x.c.c.c.x.z.j.j.J.Y.Y.B.P.B.m.D.D.z.z.k.h.h.h.",
"L.J.j.s.j.P.m.N.x.c.x.x.x.h.h.p.p.p.s.h.s.j.m.F.D.x.D.x.z.x.c.c.c.D.D.h.h.z.c.c.x.x.x.x.x.D.C.J.J.j.Y.Y.B.I.m.m.D.x.c.z.s.h.p.d.",
"j.H.j.d.j.H.P.C.m.z.x.m.z.x.x.D.C.z.j.C.J.J.H.L.C.C.P.C.N.N.c.c.m.H.J.L.P.C.C.N.C.C.Y.Y.J.G.J.j.H.j.j.G.Y.J.C.Z.C.D.x.j.s.p.h.j.",
"H.H.H.j.H.J.j.L.k.m.F.C.C.C.z.m.C.C.C.J.J.G.H.H.H.j.j.P.C.N.m.m.D.J.G.G.J.P.P.P.L.P.j.J.P.J.h.s.s.s.p.h.j.j.j.B.C.h.s.p.p.d.C.C.",
"P.j.s.s.j.J.J.J.J.P.L.L.J.P.C.m.h.C.Y.G.H.G.J.P.L.C.m.J.C.L.C.C.P.j.P.L.H.H.P.L.j.G.J.J.J.j.p.p.h.h.h.j.p.h.x.D.B.h.p.h.J.Y.k.C.",
"P.m.s.s.m.m.P.J.J.J.J.P.P.j.Y.Y.C.P.J.G.G.G.C.D.C.B.m.J.J.J.J.J.J.D.j.L.H.J.H.j.d.P.P.J.G.G.j.j.D.D.j.j.D.x.c.D.G.J.j.j.P.j.k.C.",
"C.m.z.x.x.D.H.J.J.J.j.h.h.h.h.h.s.s.d.m.C.P.L.B.B.H.P.L.H.P.P.j.Y.J.J.P.G.J.J.H.H.J.H.J.J.G.J.z.c.c.c.x.m.c.x.D.J.L.G.J.J.h.D.S.",
"D.m.N.D.D.C.j.j.p.h.s.s.s.s.h.j.h.h.s.s.D.C.J.P.j.H.J.J.L.j.D.C.k.h.j.j.h.j.J.J.H.d.G.J.Y.L.C.m.m.N.z.x.z.z.c.x.L.L.Y.G.J.D.x.N.",
"D.x.z.m.C.D.z.z.h.h.h.z.x.z.z.z.D.x.x.x.x.z.C.C.P.J.j.C.C.m.m.z.z.h.z.h.p.p.h.B.J.G.H.H.G.G.P.B.m.N.D.S.D.D.D.m.I.Y.G.G.C.D.c.x.",
"D.x.F.P.j.j.c.c.m.x.c.z.z.D.z.x.c.m.z.m.c.z.z.D.B.P.m.m.P.P.P.j.s.x.x.x.D.h.k.z.j.G.G.G.G.L.P.P.P.P.P.P.C.C.k.C.I.J.G.Y.F.D.x.x.",
"D.D.D.C.C.D.c.c.z.c.z.c.x.x.m.c.z.m.z.x.m.z.m.z.m.F.C.m.L.L.L.H.j.C.D.j.z.z.c.z.j.J.H.J.J.J.J.J.P.J.G.L.j.j.J.Y.Y.P.j.P.B.z.z.D.",
"j.C.C.C.C.N.c.c.z.c.m.c.m.z.x.z.c.c.m.z.z.c.x.x.m.C.P.P.J.H.H.L.J.J.L.j.C.C.D.D.Y.J.J.P.P.J.J.J.J.P.J.J.C.D.C.N.J.P.P.P.m.z.z.D.",
"m.P.J.B.N.N.m.x.D.c.c.c.c.c.N.c.c.c.z.c.N.N.z.m.B.P.J.J.G.G.J.J.J.H.J.J.C.Y.P.J.J.J.J.J.J.L.J.J.C.m.P.P.D.x.x.x.D.C.P.P.j.j.j.S.",
"m.L.H.j.j.C.C.C.z.c.c.c.m.c.m.c.N.m.m.N.F.C.C.C.L.J.J.P.J.J.J.J.P.J.J.J.C.C.P.J.J.J.J.J.G.L.B.L.C.C.j.B.x.x.x.x.x.D.P.J.j.Y.Y.D.",
"m.C.H.G.L.L.L.L.C.C.x.N.c.C.I.I.Z.B.C.J.j.j.P.P.H.j.H.L.j.L.G.Y.P.C.P.P.C.C.P.J.J.J.J.J.P.m.D.D.C.C.P.B.m.x.x.c.x.D.J.P.F.D.B.C.",
"c.C.H.P.L.d.G.G.J.P.D.c.F.C.d.j.P.L.J.Y.J.J.J.J.H.J.J.L.j.B.J.Y.C.m.C.I.D.m.m.J.J.J.J.J.C.m.x.C.P.P.J.P.j.x.z.x.z.m.L.L.B.m.B.C.",
"z.F.B.C.I.I.I.G.P.P.m.x.N.P.P.H.J.J.P.j.k.P.G.L.J.P.J.L.P.I.G.J.j.D.H.L.C.D.C.P.J.J.J.J.J.C.P.P.G.L.P.J.Y.k.z.D.k.J.J.H.C.D.B.s.",
"C.C.j.x.P.L.I.G.J.J.C.m.m.C.j.B.P.P.C.D.j.C.L.L.L.j.H.H.P.L.Y.G.J.J.H.H.B.C.L.J.J.J.J.J.J.J.Y.G.G.L.G.H.j.D.D.C.J.J.H.H.P.P.C.s.",
"P.C.m.D.Y.P.P.H.P.J.J.C.m.x.x.D.P.G.J.J.C.P.H.C.m.m.J.H.J.C.j.j.J.J.J.L.L.L.H.P.L.G.P.J.J.J.P.P.I.Y.H.H.L.H.J.P.H.H.H.H.P.P.C.s.",
"L.C.C.B.C.j.L.H.P.P.J.P.D.x.x.z.B.G.J.Y.F.C.P.L.B.j.H.J.C.m.m.m.Y.J.J.J.L.Z.m.B.L.P.J.J.J.P.J.J.G.G.J.L.L.H.j.B.j.H.H.j.j.P.J.s.",
"L.L.L.L.d.H.H.H.P.D.j.J.Y.C.D.D.B.H.d.d.p.h.j.C.J.P.J.j.m.m.c.c.D.L.L.H.J.I.D.k.j.P.P.J.J.C.J.J.J.J.G.P.B.B.s.h.L.P.J.s.s.P.L.L.",
"J.B.L.G.L.H.G.H.J.C.J.P.J.j.P.Y.P.j.d.d.h.h.p.k.J.J.J.C.D.x.c.x.z.B.B.P.J.J.m.x.m.P.P.P.C.m.C.C.Y.Y.J.C.d.C.s.h.j.H.J.h.p.j.L.C.",
"H.H.L.H.P.C.P.H.J.P.Y.J.Y.G.G.G.L.J.P.P.P.C.h.J.J.Y.J.J.m.h.x.z.D.x.z.m.C.C.D.D.j.Y.J.P.C.F.C.B.j.J.H.j.J.Y.q.h.H.H.G.H.j.G.J.B.",
"H.H.H.L.C.o X X + # # # & & # # # # # # # # # # # # # # # # # # # # # # # X # # X X # + X + + X + + + X # # & # + + + # X #   u.",
"H.J.j.m.m.  > V V C Y Y Y Y Y Y Y Y Y Y Y Y Y Y Y Y Y Y Y Y V c c B v V V V V v d d s s s s s s s s s s s s s z B V V V B V   u.",
"H.j.m.z.m.  , V V Y Y Y Y Y Y Y Y Y Y Y Y Y Y Y Y Y Y Y Y Y Y Y V V V V V V V V V s d s s s s s s s s s s s s z V V V V B c   a.",
"L.L.m.m.c.  1 V V Y C Y Y Y Y C Y Y Y Y Y Y Y Y Y Y Y Y Y Y Y Y V V V V V V V V V s d d s f d d s d s s s s d z V V V B V V   u.",
"J.B.F.N.c.m.w..                   o               o                           .           .                         o       C.J.",
"J.H.L.C.Z.N.w...*XJ   %.<.=.=.%.l -.*.*.=.l *.*.=.k =.=.=.#.-.=.:.*.l &.*.*.k *.=.:.+.$.*.:.,.l <.<.*.l O.*.=.=.*.@.  { .X  m.B.",
"P.L.P.P.P.C.f.b 0 ;X} : =.9.&.&.m <.9.1.&.l *.:.9.n =.5.9.%.-.&.=.*.l 9.*.9.j &.&.:.+.,.5.*.8.i %.,.0.i $.>.<.=.:.> K ,X4 u.z.B.",
"L.H.J.P.G.J.H.a O .X&X@ 9.8.q.=.l >.0.0.0.j 8.<.9.k q.7.9.%.<.9.5.=.j 7.9.9.j =.9.=.#.,.7.0.9.l %.9.8.l %.9.9.,.q.= XX}   C.k.C.",
"P.B.H.J.J.G.H.a o +X&X@ 9.0.0.6.k 6.9.0.0.l 9.4.7.k 9.9.9.%.,.7.9.6.O.9.9.9.j 6.7.6.$.6.9.9.7.k 6.9.9.j $.0.7.7.q.= .X~.  J.C.C.",
"j.j.P.G.J.G.G.a o &X&X. >.0.0.9.l 6.0.0.0.O.9.9.0.k 9.9.9.&.,.9.9.0.l 9.0.9.j 9.9.9.%.6.0.9.8.k 0.9.9.l $.0.0.4.=.= XXXX  P.J.B.",
"P.L.P.J.J.p.p.c e +X&X8 O.0.0.9.j >.7.7.7.j 9.0.9.k 9.9.7.&.,.9.9.0.l 0.0.9.j 9.7.7.$.4.9.0.0.k 0.9.9.j $.0.0.=.N w oX'.e P.P.P.",
"H.P.P.J.P.h.p.d.E.S &X%X  9.9.9.k >.7.7.0.l 0.9.9.k 9.0.9.&.6.7.9.8.O.9.0.9.j 9.9.9.%.6.9.0.9.k 0.0.0.l $.0.9.p   oX.X  j.m.j.P.",
"H.B.j.j.j.J.H.G.E.S &X-X  9.0.9.k >.9.9.0.l 0.0.9.k 0.0.9.&.6.7.9.8.j 9.9.0.j 9.9.9.%.4.0.9.9.k 0.0.0.l $.0.9.p   .XXX  j.C.J.P.",
"L.j.s.s.j.H.J.P.E.S @X|.  5.8.9.l >.9.9.9.j 5.9.9.m 0.0.9.&.,.8.9.9.l 9.8.7.j 9.7.9.%.6.0.9.0.l 9.8.0.l $.8.8.y   {. X  J.j.J.P.",
"L.B.d.s.j.j.F.C.E.q !.<X  >.9.9.k ,.8.9.9.m =.9.9.m 9.0.9.$.,.9.4.&.l 9.9.9.j =.5.9.%.<.9.&.9.k 9.9.9.l $.0.o.t o ,X{   B.L.P.J.",
"H.L.L.P.J.B.B.m.s.w.o ^.*X  %.%.l <.0.2.<.l *.%.&.l =.7.0.&.$.*.=.&.l 0.8.<.j =.<.*.#.$.&.&.:.k =.7.:.k -.<.@.D .XQ   B.m.C.J.L.",
"p.H.L.L.P.Z.z.x.s.w.  *X*X  >.*.j -.=.=.*.i %.<.<.h =.&.=.#.$.<.&.&.p &.&.=.l =.&.&.O.#.&.%.:.t =.&.&.j +.*.+.D XX{.  C.z.P.H.P.",
"s.L.H.j.F.m.c.N.s.w.  *X*X  <.*.t +.=.:.*.i *.&.=.g =.=.=.O.+.&.=.=.p =.=.&.y =.&.&.M +.>.*.*.g :.=.=.y l &.@.F .X^.  C.C.P.P.B.",
"j.H.H.L.C.m.m.z.m.w.  *X*X  :.*.t #.=.=.*.i *.&.<.g =.=.=.M #.&.:.=.p :.=.:.t =.&.*.O.#.*.*.*.g :.=.=.t l *.O.F .X!.  P.L.J.P.m.",
"G.G.G.- - > L m.D.c.f.4 &X+X$ ;.t #.=.:.=.i *.:.:.g =.:.<.O.+.*.=.=.p :.=.=.t :.&.&.O.#.*.=.*.g =.:.:.t l < > .XOXe f.j.J.J.C.m.",
"J.G.  :X>X&X..y.J.j.A.% &X~.  o   .   .     .                                   .             o     o       * ^..X7 h.h.C.B.C.C.",
"G.J.  / / I e t.J.G.J.O OX;XG ~ [ [ [ [ [ [ ( [ ( ~ F }.F Q ( ( [ [ Q J Q Q Q A X.A F J Q Q Q Q J J Q Q Q F G OX!.7 p.p.D.m.B.P.",
"Y.j.          t.J.Y.J.o ~.3X^.*X&X*X=X=X=X&X&X&X-X&X~.3X!.OX&X&X&X&XXX.XXX.X.X(.:X{ !..X.X.XXXOX.XOXoX.X.XQ.!.&X(.7 j.k.D.m.I.P.",
"J.j.3.  I o 9 r.r.r.3.O |.` |.|.`.`.4 3 4 ; = `.`.`.`.` [.[.`.`.|.|.| | Q.| Q. .Q Q.Q.Q.| | 3 4 = = Q.Q.Q.Q. .`  .- r.P.k.m.C.B.",
"H.H.      .                 o       ).).].! !           .     o                             ).).! _   o               J.j.m.j.B.",
"H.  =X=X=X=X%XOXOX~   Y C Y Y c   W ).G   O ! !   c Y Y Y Y Y Y C B V V V V V V V V x & % ]._.    ^ _   > v c V B x   J.L.B.P.C.",
"H.J.                  Y Y Y B   ].).  / 1X<X  _ _   B Y Y Y Y Y Y Y V V V V V V V d 1 _ ].].  2X2X  ! _ q 9 h V V x   P.P.L.P.s.",
"j.H.P.P.H.H.h.p.h.J.h.          ].5 2X#X  & 2X  _                                     ' ] o 1X    1X  ! q         7 D.C.L.L.H.d.",
"C.m.j.B.L.s.p.h.j.P.d.p.h.h.L.  ].5 2X#X  & 1X  !   C.L.P.C.D.D.P.H.G.G.J.C.h.s.h.h.Z ' W.  1X    2X  _ q i.L.P.Y.z.c.m.B.L.J.B.",
"j.h.s.s.s.p.h.j.J.H.H.h.s.j.J.  ).].o / 1X<X  _ _   d.B.P.D.x.D.J.Y.G.G.P.D.s.h.s.s.Z ' ].].  1X1X  ! _ q i.C.j.C.z.m.D.L.H.j.j.",
"z.h.s.s.s.h.j.J.L.P.J.h.s.j.s.s.o W ].P   O _ ^   Z.I.P.Y.C.C.C.J.J.G.L.D.x.z.m.s.s.s.r % ).).o o _ !   T J.p.s.h.D.m.B.H.j.p.s.",
"x.h.s.s.s.d.j.H.G.L.j.p.h.h.p.h.3.S ).] S S _ 0 R H.H.H.P.P.P.P.J.j.C.m.m.c.D.C.P.k.h.t.E q ].W A _ 0 R g.j.d.s.j.C.C.P.J.H.h.p.",
"c.x.h.h.m.L.H.H.G.J.j.h.h.p.p.h.Y.T.+ O + % + T.G.H.H.H.H.H.j.C.P.P.C.B.m.m.N.C.P.j.k.h.d.T.+ O o O T.P.G.H.J.C.h.j.j.H.L.J.h.j.",
"c.c.D.z.m.D.P.P.C.p.p.k.h.p.j.G.J.m.2 2 9 2 2 J.G.J.H.H.P.C.D.P.H.G.J.P.D.m.C.P.J.B.m.h.h.h.2 2 2 9 C.J.G.G.H.H.h.s.h.H.J.J.j.s.",
"m.z.z.z.c.z.m.B.j.h.p.j.J.G.J.j.B.m.z.h.z.z.j.j.J.P.J.B.m.s.h.C.P.G.H.L.Y.m.B.P.P.P.I.C.m.c.z.h.x.x.P.L.G.P.J.j.C.j.j.H.P.P.J.P.",
"B.N.c.c.c.c.N.C.J.C.j.P.J.G.G.j.P.d.s.h.h.s.J.J.P.k.j.h.z.z.m.j.P.P.j.C.C.D.D.Y.J.H.P.P.L.F.C.D.Y.j.Y.P.C.x.x.D.P.G.P.J.H.P.G.P.",
"C.D.m.N.m.m.m.F.C.C.m.m.j.H.J.J.L.d.L.P.s.s.C.k.C.D.h.u.j.m.m.P.P.I.C.C.P.j.P.J.P.P.L.P.H.B.C.C.j.J.D.C.D.D.c.c.B.P.C.C.L.B.B.B.",
"F.N.c.z.C.C.C.B.H.P.D.x.m.B.B.C.H.H.L.L.L.P.j.j.Y.M.Y.p.J.P.C.C.C.F.C.j.P.P.H.P.P.J.P.J.H.J.D.j.J.C.Y.C.P.C.x.D.C.C.D.x.D.x.c.D.",
"j.C.N.C.P.C.C.C.P.L.Y.k.D.B.B.B.H.H.j.H.L.P.j.Y.j.Y.Y.Y.J.B.B.m.m.m.C.Y.C.C.C.C.C.k.D.m.B.L.C.j.C.B.j.D.C.C.k.D.Y.j.z.x.D.D.x.m."
};
