/* XPM */
static char *result[] = {
/* columns rows colors chars-per-pixel */
"64 64 228 2 ",
"   c #5D3C13",
".  c #693B09",
"X  c #78341C",
"o  c #772B21",
"O  c #654214",
"+  c #67451B",
"@  c #794D18",
"#  c #6F531E",
"$  c #72521E",
"%  c #7A591D",
"&  c #745522",
"*  c #7B5925",
"=  c #7D562A",
"-  c #7C5929",
";  c #795726",
":  c #7F4134",
">  c #754726",
",  c #813629",
"<  c #BC570C",
"1  c #B9570E",
"2  c #AA4B1B",
"3  c #B74B17",
"4  c #B54B1D",
"5  c #BB4D1C",
"6  c #B84818",
"7  c #AE5C1C",
"8  c #BB5414",
"9  c #BD5B13",
"0  c #BD551A",
"q  c #B25C1D",
"w  c #BD591B",
"e  c #B35117",
"r  c #AF530C",
"t  c #BF601A",
"y  c #B46C1B",
"u  c #B76714",
"i  c #B06918",
"p  c #82462A",
"a  c #835C2E",
"s  c #805524",
"d  c #874A32",
"f  c #8F5C35",
"g  c #815B31",
"h  c #925D35",
"j  c #965E3A",
"k  c #985F3C",
"l  c #B74721",
"z  c #BA4622",
"x  c #B74B23",
"c  c #BC4B23",
"v  c #BE452D",
"b  c #BD492C",
"n  c #B3492A",
"m  c #AD5C22",
"M  c #AE5E29",
"N  c #BC5322",
"B  c #B55A21",
"V  c #BC5C25",
"C  c #BB5E2A",
"Z  c #B45B29",
"A  c #AA483C",
"S  c #BD4732",
"D  c #B54A35",
"F  c #BD4931",
"G  c #B64B3B",
"H  c #A45639",
"J  c #B5533A",
"K  c #85602D",
"L  c #8D6234",
"P  c #8A6234",
"I  c #936336",
"U  c #95643A",
"Y  c #99633A",
"T  c #96693A",
"R  c #9B6C3C",
"E  c #966736",
"W  c #9E713D",
"Q  c #AD6524",
"!  c #BB6029",
"~  c #B76926",
"^  c #A06E3F",
"/  c #AD653E",
"(  c #B26A32",
")  c #A4723E",
"_  c #A8763E",
"`  c #B17733",
"'  c #C15415",
"]  c #C45C16",
"[  c #C2521B",
"{  c #C25A1C",
"}  c #C04E19",
"|  c #C2620A",
" . c #C36315",
".. c #C5671B",
"X. c #C34D22",
"o. c #C2472D",
"O. c #C34A2C",
"+. c #C04421",
"@. c #C35323",
"#. c #C25B23",
"$. c #C3542A",
"%. c #C6582C",
"&. c #C24631",
"*. c #C34B33",
"=. c #C54538",
"-. c #C14A3E",
";. c #C55535",
":. c #9A594D",
">. c #A74C46",
",. c #A95448",
"<. c #B35D41",
"1. c #BA5541",
"2. c #AE4C49",
"3. c #A56443",
"4. c #A26F41",
"5. c #AC6845",
"6. c #A47241",
"7. c #AB7642",
"8. c #AD7A42",
"9. c #AD734A",
"0. c #B37D43",
"q. c #B97E44",
"w. c #B47C48",
"e. c #AE6A4C",
"r. c #BE843F",
"t. c #FA9D3A",
"y. c #F6AB2B",
"u. c #FEAC2E",
"i. c #F4A62F",
"p. c #FBB02E",
"a. c #F7B12E",
"s. c #ECAE3A",
"d. c #FBA635",
"f. c #F6AD33",
"g. c #FDAD34",
"h. c #FCA43D",
"j. c #FDAD3B",
"k. c #F5A73A",
"l. c #EFB734",
"z. c #EFBB39",
"x. c #EDB73B",
"c. c #F4B334",
"v. c #FCB135",
"b. c #F5B53B",
"n. c #FDB23A",
"m. c #F3BA3C",
"M. c #F6B937",
"N. c #B68444",
"B. c #BE8442",
"V. c #BD8A44",
"C. c #BD8349",
"Z. c #BB8946",
"A. c #C18544",
"S. c #C38C46",
"D. c #C3874A",
"F. c #C48C49",
"G. c #C49146",
"H. c #C59148",
"J. c #C89049",
"K. c #FD9D45",
"L. c #FD9D4A",
"P. c #F9954B",
"I. c #FE9C53",
"U. c #FF955A",
"Y. c #FF9D5B",
"T. c #FF9555",
"R. c #FEA445",
"E. c #FEAC42",
"W. c #FEA34C",
"Q. c #FFAC4B",
"!. c #EEB643",
"~. c #FDB242",
"^. c #F9B846",
"/. c #FFA453",
"(. c #FFAA54",
"). c #FFA45B",
"_. c #FF9B63",
"`. c #D1AA7A",
"'. c #D5AF7B",
"]. c #FFBE68",
"[. c #F2B874",
"{. c #FFCF4D",
"}. c #FFDD56",
"|. c #FFDD5B",
" X c #FCD15A",
".X c #FEC95E",
"XX c #FFE35B",
"oX c #FFCB64",
"OX c #FFCE6E",
"+X c #FFC56E",
"@X c #FFD363",
"#X c #FFDA63",
"$X c #FFD56B",
"%X c #FFDA6A",
"&X c #E9C975",
"*X c #FFCE75",
"=X c #FDC47D",
"-X c #FFCD7C",
";X c #F5C676",
":X c #ECD573",
">X c #EED973",
",X c #FED174",
"<X c #FFDC74",
"1X c #FFDB7C",
"2X c #FFD47B",
"3X c #FFE564",
"4X c #FFE965",
"5X c #FFE46B",
"6X c #FDE96A",
"7X c #F6E466",
"8X c #FFE675",
"9X c #FDE974",
"0X c #FFE57D",
"qX c #FFE979",
"wX c #E0BE86",
"eX c #F3BC8F",
"rX c #DFC585",
"tX c #E0C285",
"yX c #E7CC87",
"uX c #FECC83",
"iX c #F5C889",
"pX c #ECD986",
"aX c #EBDA89",
"sX c #E9D487",
"dX c #FFD483",
"fX c #F7D28B",
"gX c #E6CE90",
"hX c #FEE987",
/* pixels */
"D.J.F.F.S.D.G.G.F.F.D.F.F.J.J.F.D.D.S.F.G.J.F.G.H.H.F.F.G.J.F.H.F.F.F.F.F.F.B.V.A.A.F.G.S.F.D.S.A.B.B.A.F.H.F.D.G.G.F.J.F.F.H.Z.",
"F.G.H.F.S.A.S.G.F.D.D.D.D.F.F.F.J.F.S.F.V.V.S.S.G.J.G.G.G.D.D.D.D.C.A.A.A.F.J.F.F.J.F.D.D.D.D.A.B.B.r.A.G.H.H.F.G.G.F.D.J.J.G.D.",
"G.G.G.A.A.A.J.F.D.D.D.D.D.A.A.A.A.S.A.A.B.B.C.D.D.D.F.J.F.D.F.F.F.D.B.A.A.D.D.C.D.D.F.D.D.F.D.D.F.H.G.G.V.H.F.F.D.F.D.D.S.A.A.V.",
"G.G.S.B.S.G.D.F.D.D.D.D.D.A.A.A.r.A.r.B.S.S.S.D.F.D.D.F.D.D.D.D.D.F.D.S.D.D.D.D.D.D.D.D.D.D.F.G.V.H.H.J.H.J.F.D.D.F.D.D.A.A.r.V.",
"S.G.S.V.S.G.G.F.D.D.D.D.D.D.D.F.F.S.S.F.G.G.G.H.F.F.H.F.D.D.D.D.D.G.G.H.S.S.F.F.F.F.F.J.G.G.G.G.H.G.G.G.G.G.F.F.D.D.D.S.A.B.A.S.",
"G.G.S.S.G.G.S.G.F.F.F.F.F.F.D.D.F.F.F.G.G.G.G.H.G.G.H.G.F.F.D.F.F.G.G.G.G.G.J.G.H.H.G.G.G.S.V.r.B.B.r.A.S.S.G.G.G.S.r.B.r.r.F.F.",
"G.S.V.B.S.G.G.G.H.H.J.H.G.G.F.F.S.F.G.G.G.G.G.G.G.J.F.G.G.G.H.F.G.G.G.G.G.G.G.G.G.G.G.G.G.S.r.r.A.A.V.A.r.A.D.D.G.S.r.r.S.J.S.F.",
"J.D.B.B.D.F.G.G.H.H.G.G.G.J.G.F.F.G.G.G.G.G.G.F.F.F.D.H.G.G.G.G.G.D.F.G.G.G.G.S.r.J.G.J.G.G.S.S.F.F.S.J.F.D.D.D.G.G.S.G.J.F.S.F.",
"J.C.D.D.D.F.H.H.G.G.A.S.A.A.A.A.C.A.V.S.S.G.H.F.V.Z.H.V.G.H.H.H.G.F.S.G.J.J.G.G.G.G.G.G.G.G.H.F.D.D.F.D.D.D.D.F.G.G.G.G.G.D.D.F.",
"F.F.F.D.F.F.J.J.V.r.B.B.B.B.A.A.A.A.B.A.D.F.V.Z.N.N.W W W W ^ ^ ) ) 7.8._ 8.N.V.G.r.G.G.G.H.F.C.D.D.D.D.D.F.D.D.G.G.G.G.G.F.D.F.",
"F.F.D.F.F.F.D.D.A.A.A.D.D.A.D.D.F.D.D.D.D.w.) T P K * ; - - - = * * a L a f f I R 7.Z.G.H.G.H.H.D.F.F.F.F.F.D.D.J.G.G.G.J.F.D.D.",
"F.D.F.H.H.D.D.D.D.D.D.D.D.D.D.D.D.D.D.D.w.R = '.&X&X>X:X:X:X:X:X:X:X&X&X[./ J <.<.7.) V.H.H.H.H.J.J.G.G.J.F.S.F.J.F.G.G.J.F.D.D.",
"F.D.H.H.F.D.D.D.D.D.D.D.D.D.D.D.D.C.q.8.T > O iXhXqX4X4X4X4X4X4X3X4X6X5X<X7 b b n H d R 4.6.8.V.J.G.H.H.F.S.G.J.J.G.F.G.F.D.D.D.",
"F.F.H.H.J.D.D.D.D.D.D.D.D.D.F.C.0.R U L &   . iXuX$X}.|.|.|.|.|.|.|.|.XX Xy q q Q Q X X d d f ) N.H.H.H.J.F.F.F.J.G.G.J.D.D.D.D.",
"F.H.H.F.F.F.D.D.D.D.D.D.D.D.D.4.L `.tXtXrXgXiX( 7 u z.z.m.z.m.m.m.m.z.z.^.oX$X,X*XuXH >.2.,.,.9.7.C.H.H.F.D.D.D.D.G.G.G.G.G.G.F.",
"D.H.H.V.F.F.J.J.D.D.D.D.D.q.4.+ . uXdX$X3X#X@X< '  .g.g.g.v.v.g.g.g.c.f.^.|.|.#X#X%Xy B J z F J d 6.N.C.D.D.D.D.D.F.G.S.S.G.J.D.",
"D.H.H.H.H.H.H.H.G.F.D.F.w.^ g ;XuXQ m i s.b.~.k.R.t.y.g.g.v.g.g.g.v.v.j.n.n.n.v.c.b.@X1X+X~ 4 b D e.^ N.D.D.D.D.D.F.G.G.F.F.F.J.",
"C.H.V.H.H.V.G.H.G.H.D.C.6.= O 0X-X7 e 8 k.f.f.j.n.f.y.j.j.j.j.g.g.g.j.E.E.f.u.u.u.f.4X9X,Xr e 5 F ,.: R 0.A.D.D.D.D.G.H.F.D.F.H.",
"D.J.H.H.H.H.G.G.G.H.D.8.L + . =X].u 8 t R.k.b.n.j.n.j.E.R.K.t.j.g.j.h.W.W.n.g.d.u.a.|.#X.Xy 7 V b G , @ E 0.D.S.D.G.G.G.G.F.F.B.",
"H.F.D.D.H.H.G.G.G.G.D.W `.fXuXq ..R.L.W.k.j.E.b.b.b.E.R. .1 9 j.n.t.| 9 9 k.g.g.p.p.M.x.!.oX,X=X%.-.A A 3.) D.J.G.G.G.G.G.G.F.Z.",
"H.J.V.H.H.H.H.H.G.G.Z.T wXhX1Xx 9 W.Q.j.c.b.~.E.j.f.j.W.1 4 #.t.j.R.' } ' R.f.g.u.u.y.f.!.%X6X2X! F D 1.3.Y G.G.G.G.G.S.J.G.F.B.",
"H.H.H.H.H.V.H.H.G.G.8.P yXqX<Xx 0 /.Q.n.v.n.Q.W.E.R.W.I.5 ;.O.t.t.I.} +.@.P.W.Q.E.j.u.y.m.|.4X@X~ F n F <.Y A.S.G.G.G.S.F.G.H.B.",
"V.H.H.H.H.G.V.G.G.F.W * sX9X$Xx 8 W.E.v.g.j.(.9 5 @.@.c b o.b @.[ X.O.o.*.c %.$.@.9 h.g.c.|.XX$X! F D S <.Y _ A.F.G.G.B.B.G.H.H.",
"H.H.G.V.G.H.G.G.G.S.T $ pXqX$Xl 8 W.E.g.d.j./.3 c v X.o.O.S O.c X.c X.c b &.&.&.b 5 R.g.c.XXXX$XC b S v <.Y q.D.G.G.G.V.B.V.H.H.",
"V.H.H.H.G.F.G.H.H.H.T & pX8X$Xl 8 W.E.j.~.E.R. .' X.v &.F b b #.] ' ] { #.X.&.&.F 5 R.g.c.}.3X$XC F S &.<.Y _ B.F.G.G.F.A.G.G.F.",
"H.H.H.H.F.D.J.H.H.H.T $ pXqX$Xl 8 W.E.j.d.j.E.W.K.T.*.S F F N I.L.L.L.L.P.@.*.*.*.c R.j.c.}.XX$X! F S S <.U B.S.G.G.G.G.G.G.F.F.",
"H.H.H.H.D.F.F.G.G.S.T & pX8X$Xl 8 /.E.n.g.g.j.g.g.R.F F F F c R.j.j.j.j.R.@.&.&.=.c R.g.M.}.4X%X! F S S <.Y V.G.G.G.G.G.H.G.G.G.",
"V.H.F.Z.D.F.F.F.G.H.W & pX8X$Xz 0 W.E.n.v.p.g.g.g.R.F b b F x Q.j.j.b.n.R.@.&.&.=.X.W.g.c.XXXX%XC F &.&./ Y V.G.G.G.F.J.S.H.G.F.",
"H.H.D.F.D.D.C.A.D.D.R & pX8X$X4 8 L.E.g.p.p.g.g.v.h.b b F F c (.Q.E.Q.E.L.C &.o.O.5 R.f.l.}.4X$X! F S S <.Y D.G.J.F.D.D.D.F.G.G.",
"H.H.H.F.D.D.D.B.D.S.Y $ pXqX$Xl 0 /.E.n.p.g.v.g.v.R.b b b b c _.Y.Y.I./.U.$.O.$.4 t E.c.l.XX4X$XC D S S <.Y C.F.S.D.D.D.D.F.G.F.",
"H.G.H.H.F.F.D.C.B.B.U & pXqX$Xl 0 /.E.v.v.g.g.g.j.W.b O.b b O.X.X.X.X.[ @.o.X.U.I.R.j.c.l.}.4X%XC S S S <.Y C.D.F.D.D.D.D.D.D.H.",
"H.H.H.H.J.H.F.F.B.B.U & aXqX$Xl 0 W.E.v.g.v.v.g.j.R.&.b O.b b b c b v +.o.=.$.).Q.E.k.a.l.}.4X$XC S S S <.Y B.S.J.J.G.H.H.D.D.F.",
"G.S.G.J.G.G.G.G.H.S.T & aXqX$Xl 0 L.E.n.g.g.g.g.j.W.v O.O.&.F $.$.$.%.$.;.S $.T./.Q.j.f.l.|.4X%XV S S S <.Y V.G.G.G.G.G.J.D.S.F.",
"J.S.G.G.G.G.G.G.H.H.W * pXqX$Xl 0 W.E.v.g.g.v.n.j.W.b o.v F c )././.(.).I.N O.X.X.9 j.c.l.}.6X$XC S S S <.Y S.G.G.G.G.G.G.G.G.F.",
"G.S.G.G.G.G.S.S.H.H.R # aXqX$Xl w /.E.v.v.g.g.j.j.R.&.&.&.b c W.E.E.E.~.W.@.O.O.O.0 R.c.l.}.4X$XV S S S <.j C.D.S.G.G.G.G.H.G.G.",
"G.G.G.G.G.r.r.V.H.V.R & sXqX$Xz 0 W.E.n.g.g.g.j.j.W.O.&.&.b 5 E.g.f.k.E.L.@.O.O.O.8 R.f.l.|.4X%XV S S S <.h N.D.B.A.G.G.J.F.G.J.",
"G.G.J.G.G.A.r.V.H.H.W & aX8X$Xl 0 W.E.j.g.g.g.j.j.R.F &.v b e Q.g.v.f.~.W.@.O.O.*.0 R.c.l.|.6X$XV S S S <.h q.D.B.V.G.H.F.Z.J.H.",
"S.G.F.A.F.G.G.G.H.V.T # pXqX$Xz 0 /.E.n.g.g.g.j.j.W.b b v b 5 W.j.j.n.~.R.@.&.*.*.0 R.c.c.|.4X$XV S S S <.k q.D.D.F.V.F.J.F.H.H.",
"G.S.B.B.S.G.G.G.F.V.T # pXqXOXz 0 /.E.j.d.j.K. .8 c o.v o.S b $.N N N 8 3 v =.=.=.c R.c.l.|.6X$XV S S S 1.j q.D.G.G.H.H.H.V.H.H.",
"H.H.S.B.F.H.J.G.D.B.I # pX8X$X4 0 W.j.n.g.j.K.8 6 6 c o.o.S v z l c c 5 X.O.o.o.O.5 h.v.b. X6X$XV S S S <.j C.D.H.G.H.H.H.H.H.H.",
"V.H.H.H.H.H.F.D.A.q.I $ pX8X$Xl #.W.E.d.y.~.h.| < 9 } X.o.+.c [ 3 { 6 X.@.[ [ ' [ | h.g.c.|.6X$XV S S &.<.k C.D.H.H.H.H.C.H.H.H.",
"r.H.H.H.H.F.D.D.C.B.I $ pX8X$Xc N W.E.f.v.f.j.h.R.K.I.T.%.z X.I.K.P.' 6 @.P.W.K.R.K.j.y.b.|.3XOX#.S S S <.Y B.S.H.H.H.F.D.H.G.H.",
"V.H.S.V.H.D.D.D.D.D.W * sXhX$X6 { /.E.f.c.n.E.E.f.j.R.L.[ 6 5 K.E.W.0 l X.W.~.E.j.h.g.g.c.|.5X$X#.F S S <.k r.A.H.J.H.H.G.H.H.H.",
"G.G.G.H.F.F.F.C.D.D.8.P &X&X;X! t /./.k.f.f.b.^.v.p.j.E.| 8 ] d.n.E.9 w ..h.j.f.g.g.f.l.x.$X<X;X%.G G J 5.) V.V.F.V.F.H.H.G.H.C.",
"G.G.G.G.G.G.F.F.D.D.C.8.T - % #X+X~ B ..h.g.~.k.c.f.j.j.j.E.E.g.g.j.j.d.d.j.j.g.g.g.{.5X,XQ m Z 2 2.o d W Z.H.G.F.S.D.S.G.G.G.D.",
"G.G.G.G.H.H.G.G.J.S.G.V.Z.W a qX*XQ 2 q k.f.g.h.j.j.b.j.c.g.v.f.g.c.v.u.g.g.c.g.g.k.6XhXdXm n S J ,.d U Z.V.V.G.G.S.A.S.G.F.H.J.",
"G.G.A.S.G.G.G.G.G.G.G.G.H.V.) fX[.` Q y !.s.E.R.R.R.j.g.g.g.g.v.g.g.g.g.v.c.M.c.M.b.oX2X[.C =.-.>.:.:._ H.H.G.G.F.S.B.r.F.Z.F.H.",
"S.S.r.B.G.G.G.G.G.J.G.G.G.H.N.@ @ ;X,XoX@X#XOX .9 ] j.g.g.g.g.f.g.g.f.n.^.{.}.}.}.$Xi q ! N S 1.o I ) V.J.J.F.F.F.G.S.F.F.D.H.H.",
"G.S.r.r.G.G.F.F.F.F.G.G.G.G.H.U > fX8X3X3X<XuXB 2 e n.j.l.f.f.j.f.g.f.i.b.|.4X4X3X<Xq x x b F ,.d w.S.G.G.H.H.V.S.H.G.G.D.D.F.F.",
"G.G.G.J.G.S.F.D.D.F.J.G.G.H.H.C.w.4.L L ; + O fX,X X}.XXXXXXXXXXXXXXXX|.oXi C %.w ( s I R U U W 8.D.S.G.G.H.H.H.G.H.G.G.S.D.F.H.",
"G.G.G.G.G.G.S.F.F.S.G.G.G.G.F.D.D.C.0._ T g + gXhX9X7X6X9X9X9X9X9X9X9XqX2XM G G D / I N.V.Z.Z.r.F.D.D.G.G.H.G.J.G.G.G.G.H.H.G.H.",
"G.G.G.G.G.G.J.S.G.G.D.F.G.G.G.D.D.D.F.S.q.7.U `.rXsXaXaXaXaXaXaXaXaXgXiXeX3.3.3.5.9.8.G.G.G.G.G.G.D.F.G.H.F.G.G.H.H.H.G.H.V.H.B.",
"G.V.G.G.G.G.A.r.A.G.A.A.B.S.G.D.D.D.G.G.J.D.N.7.P K & & & # ; ; & - a L h h h h I ^ N.J.G.G.G.G.G.D.D.J.G.G.G.G.F.F.F.H.H.H.H.Z.",
"G.G.S.S.F.A.r.A.S.G.A.r.B.A.J.F.B.B.S.S.H.H.H.V.Z.6.L L U P U T T T W 8.r._ _ 0.q.B.S.S.G.G.G.G.G.D.F.G.G.G.G.G.J.F.D.C.V.H.H.H.",
"S.A.B.B.V.r.A.S.G.G.G.A.A.S.S.r.B.B.S.F.H.H.G.H.Z.Z.Z.Z.Z.C.C.C.V.H.G.G.J.D.A.A.B.A.A.r.J.G.G.G.G.G.G.G.G.G.G.S.F.D.D.F.H.G.S.S.",
"D.A.B.B.A.B.S.G.G.G.G.r.A.S.r.A.S.G.F.C.D.F.G.G.V.H.H.H.J.F.F.H.G.H.G.G.F.D.D.A.q.r.r.A.S.J.G.G.J.G.G.G.G.G.r.r.V.D.D.F.G.G.B.B.",
"D.D.B.B.B.Z.H.H.G.G.S.A.r.r.A.A.G.G.J.J.D.F.G.G.G.G.G.G.H.H.H.H.G.S.H.V.D.D.D.J.G.S.B.B.S.J.G.G.H.J.J.G.G.G.r.A.G.F.J.G.G.G.A.B.",
"D.F.A.B.D.H.H.V.G.G.S.A.A.A.r.r.J.G.G.F.H.J.G.G.G.G.G.G.G.G.G.H.G.H.H.F.F.D.F.H.H.S.D.B.A.A.A.A.B.C.V.G.G.H.G.F.V.S.S.G.G.G.A.S.",
"D.D.D.D.D.F.H.J.F.r.r.S.A.r.J.S.G.D.D.A.V.F.F.G.G.G.G.G.H.F.F.G.G.G.G.H.F.D.H.H.H.H.F.C.A.A.A.A.C.D.G.G.G.G.G.G.A.B.A.G.G.J.S.r.",
"D.D.D.D.D.D.F.F.S.A.r.S.G.S.G.S.G.C.A.D.D.B.G.G.G.G.G.D.S.Z.B.H.H.G.G.H.F.F.Z.H.H.G.J.F.F.D.D.A.D.F.H.G.G.G.G.F.F.S.S.G.G.G.G.G.",
"F.F.F.D.F.D.F.F.G.F.F.G.G.G.G.S.G.V.B.A.C.B.G.G.J.S.D.A.D.C.F.F.G.G.G.H.J.F.F.G.G.G.J.H.H.H.F.F.S.F.G.J.F.F.D.F.H.H.G.H.G.G.G.J.",
"J.D.F.D.F.C.F.F.H.J.D.F.G.G.G.G.H.V.G.G.A.V.F.D.F.D.A.B.D.D.F.H.H.H.F.H.H.J.J.H.G.G.H.H.H.G.H.F.G.G.D.F.F.F.D.D.H.H.F.F.G.F.F.F.",
"J.F.D.D.F.H.H.V.G.H.F.D.D.F.F.F.G.H.H.G.G.S.F.F.F.D.A.S.H.H.H.H.F.F.F.F.H.H.H.H.G.G.H.G.H.G.F.F.H.H.G.J.G.F.F.D.F.F.F.F.F.D.F.D.",
"F.F.D.F.H.H.J.H.H.H.S.F.S.F.H.S.G.G.S.G.G.G.G.G.G.G.S.G.J.H.V.F.F.D.F.G.F.H.H.H.F.S.D.F.F.H.G.V.F.H.F.F.G.F.F.F.G.F.D.D.F.D.D.F."
};
