/* XPM */
static char *edefbb62fb3c4d15cbe7ea7d39daa611GleLhteCJBafLpgK[] = {
/* columns rows colors chars-per-pixel */
"64 64 181 2 ",
"   c #17A03F",
".  c #18A53E",
"X  c #1AAB3D",
"o  c #20CC36",
"O  c #22D533",
"+  c #23DB32",
"@  c #2BDB3B",
"#  c #25E72F",
"$  c #26EC2E",
"%  c #24E231",
"&  c #29E235",
"*  c #2BED34",
"=  c #2DE43A",
"-  c #2EE839",
";  c #30E33D",
":  c #32EE3B",
">  c #138E43",
",  c #149343",
"<  c #199547",
"1  c #169A41",
"2  c #1B9C45",
"3  c #1E9B4A",
"4  c #22954F",
"5  c #209D4B",
"6  c #2B9B56",
"7  c #2D9A58",
"8  c #319D5B",
"9  c #1AA142",
"0  c #20A946",
"q  c #24A34D",
"w  c #28A94F",
"e  c #2BB24E",
"r  c #27A450",
"t  c #2CA553",
"y  c #2CAB53",
"u  c #31A756",
"i  c #32B356",
"p  c #3FA466",
"a  c #3EA863",
"s  c #36D647",
"d  c #33E640",
"f  c #37EE41",
"g  c #3DEE43",
"h  c #40D751",
"j  c #4FDE5C",
"k  c #43EF4A",
"l  c #40F048",
"z  c #48F04F",
"x  c #4CEE53",
"c  c #54E55F",
"v  c #55ED5C",
"b  c #4DF053",
"n  c #59DD6F",
"m  c #54D76C",
"M  c #57E967",
"N  c #58EB67",
"B  c #5CEC6C",
"V  c #56E269",
"C  c #5AF463",
"Z  c #5EF669",
"A  c #55F161",
"S  c #5EE272",
"D  c #61EE6F",
"F  c #6BEE68",
"G  c #7AE76E",
"H  c #72EA6B",
"J  c #7AE86F",
"K  c #62F66C",
"L  c #6BF36F",
"P  c #62F86C",
"I  c #60F266",
"U  c #63E974",
"Y  c #69EE79",
"T  c #76EE71",
"R  c #7AEF75",
"E  c #7FEE79",
"W  c #66F373",
"Q  c #6BF776",
"!  c #66F971",
"~  c #6CFA76",
"^  c #6EF57B",
"/  c #6EFA79",
"(  c #71F474",
")  c #7AF57D",
"_  c #70FB7B",
"`  c #BE843F",
"'  c #BE8442",
"]  c #BE8943",
"[  c #BF8B4B",
"{  c #B6934A",
"}  c #BD954C",
"|  c #B49B4F",
" . c #BB9E4E",
".. c #AC9F51",
"X. c #BA9651",
"o. c #B69E50",
"O. c #BC9A50",
"+. c #B4A44F",
"@. c #AEA455",
"#. c #ADA956",
"$. c #ADA658",
"%. c #A6AF5B",
"&. c #ACAF59",
"*. c #A3AE54",
"=. c #B5A453",
"-. c #B8A350",
";. c #B2AB55",
":. c #A6B358",
">. c #ABB359",
",. c #C18544",
"<. c #C38C46",
"1. c #C3874A",
"2. c #C38D49",
"3. c #C58C49",
"4. c #C48F49",
"5. c #C48D4A",
"6. c #C58E4A",
"7. c #C78E49",
"8. c #C2894C",
"9. c #C68E4C",
"0. c #C48C49",
"q. c #C88E4E",
"w. c #C39147",
"e. c #C59147",
"r. c #C59146",
"t. c #C49146",
"y. c #C39149",
"u. c #C59048",
"i. c #C5914A",
"p. c #C59149",
"a. c #C89049",
"s. c #C09849",
"d. c #D2A874",
"f. c #98C45E",
"g. c #8CDD6F",
"h. c #90D86D",
"j. c #90D46D",
"k. c #8CDB70",
"l. c #A7C167",
"z. c #84E575",
"x. c #88E273",
"c. c #83E976",
"v. c #75FC80",
"b. c #75FC80",
"n. c #7EFC88",
"m. c #7AF984",
"M. c #86EE80",
"N. c #8DEF88",
"B. c #96EC8B",
"V. c #82FC8C",
"C. c #86F688",
"Z. c #87FD90",
"A. c #8AFC93",
"S. c #91FC9A",
"D. c #98FDA0",
"F. c #B0E4BC",
"G. c #A9FEB0",
"H. c #A8F4A6",
"J. c #BBDFC9",
"K. c #B9E4C5",
"L. c #BEECC6",
"P. c #BDE1CA",
"I. c #C5ECCF",
"U. c #C4FCC8",
"Y. c #C4E3D0",
"T. c #C8E5D3",
"R. c #CAEFD1",
"E. c #D3EADC",
"W. c #CFFDD2",
"Q. c #D6FDD8",
"!. c #DDFDDF",
"~. c #E1F1D4",
"^. c #E4F7E7",
"/. c #E4FEE5",
"(. c #E2F1E8",
"). c #E7FEE8",
"_. c #EEFFEF",
"`. c #F8F1E8",
"'. c #EEFFF0",
"]. c #F3FDF4",
"[. c white",
/* pixels */
"8.9.8.4.,.4.4.7.2.8.8.9.9.4.i.4.7.0.1.2.y.i.9.2.y.2.4.2.i.i.4.0.0.2.9.4.8.4.' ' ,.<.4.4.<.0.1.1.,.,.` ' <.i.<.8.e.i.4.9.0.4.4.0.",
"4.e.e.<.<.,.7.e.7.8.1.1.1.1.0.0.1.<.<.7.<.] <.2.i.i.i.e.4.4.8.<.1.,.,.,.,.4.0.4.7.1.0.1.1.1.1.,.' ' ` <.e.e.i.4.e.7.<.8.4.7.<.<.",
"e.e.7.,.` ,.e.7.,.1.1.1.1.,.,.,.,.<.,.' ' ' ,.0.O.c.) b.b.b.b.) b.b.b.b.b.b.) o.1.1.1.1.1.1.1.<.<.w.4.4.<.e.2.8.<.0.1.1.1.,.,.' ",
"w.e.<.` <.7.<.8.1.1.1.1.1.,.,.` ,.` ' ' ' ] 8.} @.( ~ V.Z.~ ~ _ ~ ~ ~ ~ ~ Q Q $.X.8.1.0.1.1.4.e.y.y.i.4.2.i.2.8.1.1.1.1.' ` ` <.",
"<.w.<.] <.e.7.2.1.1.1.1.1.1.1.1.0.<.,.7.7.r.s.h.R l : W.).: : : : : f : : : g J g.} 4.a.e.w.e.<.7.7.<.<.r.r.2.2.4.,.1.,.,.` ,.<.",
"e.e.w.<.i.e.w.e.7.8.4.4.0.0.1.0.4.4.i.i.r.-.+.J K = + R.(.& + # & + % % + % & Z T ;. .p.e.<.<.` ` ` ` <.<.7.7.4.4.<.,.` ` ] 4.4.",
"i.<.' ' <.7.w.e.e.i.i.y.e.e.4.<.<.<.w.r.r.c.R l = . 1 6 8 1 1 1 1 1 1 1 1 1 1 = f ( c. .e.<.` ` ' ,.,.,.` ,.1.0.i.<.` ` 7.7.<.0.",
"a.<.' ' 1.2.e.e.e.e.e.e.i.7.7.7.i.i.w.w.s.) _ f + 1 > > > > > > > > > > > > , + * ~ ) -.r.w.<.<.0.4.<.4.0.1.1.1.w.<.<.7.4.0.<.4.",
"4.1.1.1.1.<.7.7.r.<.,.<.,.,.,.,.' ' ] 8.4.b._ : % 1 > > > > > > > > > T.(.> , + * ~ b. .e.e.7.8.1.1.0.1.0.1.1.1.e.e.e.e.e.<.,.q.",
"4.0.1.0.1.7.7.4.<.` ' ' ' ' ,.,.1.' ' ' 0.b._ : % 1 > > > > > > > > > (.[.> , + : ~ ) -.e.s.<.8.8.1.1.0.1.1.1.0.i.i.r.r.e.8.1.8.",
"0.1.1.8.7.7.1.1.,.,.,.1.,.1.1.1.1.1.[ E b.$ %   > > > > > $ * ! b.b.b.b.b.> > > 1 & $ ~ b.w.i.2.8.8.0.1.0.1.,.1.i.e.e.r.a.1.1.1.",
"0.1.4.w.<.<.1.8.,.1.1.1.1.1.1.1.1.8.1.E b.$ % 9 > < < < < $ * Z _ _ _ _ / < < > 1 = : ~ ) w.i.e.a.a.i.i.i.4.<.7.i.w.r.e.a.<.1.1.",
"0.,.9.y.7.<.1.1.1.1.1.1.1.1.1.1.8.1.1.E b.$ # 9 3 n U U S $ $ f : f : f : U S q 6 L.Q.V.b.4.w.e.e.e.w.p.r.7.7.a.i.e.7.e.4.8.1.1.",
"7.4.4.7.q.1.1.1.1.1.1.1.1.1.1.1.[ X.X.N.Z.% + 9 w B / / ~ % % % % % + $ $ / W q 7 T.(.m.~  . .w.e.e.w.e.r.1.7.0.e.e.e.i.8.1.1.0.",
"8.i.w.<.8.4.1.1.1.1.q.1.8.1.1.8.X.k.E !.'.1 9 S D f - : * 1 1 1 1 1 1 % $ : - 9 , 7 8 = : ) c.-.7.8.e.e.1.1.1.1.<.4.e.e.<.7.7.0.",
"8.y.w.<.0.8.8.q.1.1.1.1.q.1.1.8.X.E b.'.[.> 2 S ~ : $ $ $ > > > > > > % $ $ $ 1 > > > & $ ) ) =.w.0.7.4.1.1.1.1.1.0.e.e.<.7.7.<.",
"8.7.w.w.w.w.i.i.4.4.1.1.0.0.y.i.O.E b.b l > < U ~ : $ 9 1 % +   1 O % 9 1 $ * N S 3 > % $ b.) =.7.4.e.2.1.1.1.1.1.0.e.e.4.0.4.4.",
"<.7.w.i.y.w.w.e.e.i.0.1.q.4.<.<.o.E _ : $ > < U ~ - $ 1 > $ # 9 1 % $ 1 > $ * ! Y 3 > % $ b.) =.w.e.w.i.0.1.1.1.1.0.e.e.0.1.2.9.",
"1.4.4.4.i.e.w.e.e.i.<.1.0.a.i.e. .) ) : $ > , + % 1 > > > > > > > > > > > $ $ $ + 1 , % $ b.) -.w.p.e.e.7.,.1.0.<.7.e.w.4.4.<.' ",
"2.2.8.<.2.e.e.e.e.4.0.<.1.4.<.} -.R _ - % , , O + , > > > > > > > > > > , % # $ & 9 < + % n.C.;.s.w.e.w.a.<.0.4.4.7.w.w.i.i.2.' ",
"w.7.8.8.4.4.i.w.e.e.e.4.8.1.} j.J g : X   > > 1 1 > > > > > > > > > > > >   . % - B U 9 1 /./.B.g.;.w.w.p.e.e.e.7.w.w.e.e.i.<.' ",
"w.e.7.2.2.<.y.w.i.4.e.i.9.1.X.z._ z k 2 , 1 1 , > > > 3 5 9 3 3 2 > > > > > , + * ~ b.5 > /.!.A.c.;.e.y.p.e.<.2.e.w.e.<.7.e.w.' ",
"w.2.w.<.w.w.w.e.e.<.<.e.i.4.O.z.V.Q./.6 , + + 1 > > > S b.U Y Y S 3 > > > > , + : ~ b.5 > g z ~ ) ;.p.y.2.2.' ,.7.e.e.` ' e.y.y.",
"y.<.7.w.e.w.e.w.e.7.e.e.e.7. .c.Z.'.[.7 > $ #   > > > Y b.b.b.b.Y 3 > > > > , + : / b.5 , $ * ! c.;.p.y.<.2.' ' <.w.i.' ` <.i.y.",
"w.w.i.e.4.7.e.e.e.i.a.e.w.) J l ; u 8 < > $ %   3 S Y f * - : : f U Y 3 , > > 1 9 = : 1 > 1 1 @ : L ) p.<.<.` ` <.w.e.7.] e.e.<.",
"w.w.w.i.0.0.4.e.w.w.<.<.e.b.~ : + 1 > > > $ % . 3 Y ) : $ $ $ $ : ~ b.3 > > > > 1 % $ 1 > > , + : P ) w.i.w.<.<.e.w.e.e.e.w.7.8.",
"w.e.<.0.8.0.9.a.e.e.7.<.e.) / f + 1 > % $ > > > 1 % $ $ $ > , + $ $ $ ~ b.> > > 1 % $ ~ ) [.].x : P _ p.e.e.r.e.e.e.w.e.w.w.w.<.",
"w.8.<.1.1.1.0.8.4.4.e.e.e.b.~ : % 1 > + % > > < 9 % $ $ $ > , O $ % % ! / > > > 1 + $ ~ b.'./.x : P ) e.e.e.r.7.r.w.4.7.2.e.e.i.",
"w.4.8.0.1.1.,.' ,.0.1.0.0.b.~ : % 1 > 1   > < m B - $ X 9 > > 1     9 = f > > > 1 % $ ~ ) p a @ * P _ r.7.r.7.a.r.1.1.1.1.0.e.7.",
"e.4.i.8.1.1.,.' 1.1.,.,.,.b._ : & t 8 > > > < n B - $ 1 > > > > > > > O % > > > 1 % $ ~ _ > 1 + : P _ r.7.<.<.<.1.1.1.1.0.1.4.4.",
"e.<.y.i.8.0.1.,.,.' ,.,.,.b.Q f g F.Y.6 > > , r e & $ 1 > > > > > > > 9 . > > > 1 % $ ~ b., , + : P b.r.r.<.1.<.1.7.<.1.0.8.8.4.",
"e.i.e.i.a.i.i.7.,.' ' ,.1.b.Q : k /.[.8 > > > > 1 % $ 1 > > > > > > > > > > > > 1 + $ ~ b.> 1 + : P b.r.7.a.<.a.a.a.7.7.4.1.,.2.",
"i.<.e.r.r.r.r.r.7.4.4.4.6.b.~ f & u 7 , > > > O % $ $ 1 > > > > 1 O % 1 > > > O % $ $ ~ ) , 3 P.Q.S.b.e.e.r.e.e.e.e.r.e.r.7.<.0.",
"e.7.e.r.r.r.r.w.<.i.i.p.i.b.~ f % 1 > > > > , + $ $ $ 1 > > > > 1 % $ 1 > > , + $ $ $ ~ b., 4 E.'.D.b.e.w.7.e.e.e.e.e.e.e.e.4.4.",
"<.w.e.w.w.<.<.w.y.w.w.w.w.b.~ f % 1 > o O > , + % X . , > > > > 1 + $ V S > >   X % $ ~ b.> , j Z / b.7.,.<.<.' <.<.e.e.e.e.i.2.",
"7.y.w.r.r.` ` ] y.w.w.w.w.b./ g d 1 > + # > , + + 1 > > > > > > 1 % $ ~ / > > > 1 % $ ~ b.> , + - P b.` ' ' ' 1.` ] e.e.4.4.i.i.",
"w.i.i.e.7.] ` ` y.e.w.<.<.) n.U.L.6 > 1 1 > > 1   > > > > > > > 1 % $ ~ b.> > > 1 % $ ~ _ > , + : P b.,.' ' 1.1.,.] e.e.4.8.<.y.",
"w.<.<.<.7.e.w.w.w.e.<.' ,.b.Z.).(.7 > > > > > > > > > > > > > > 1 % $ ~ b., > > 1 % $ ~ b.> , + : P _ 1.1.1.1.1.8.<.<.8.i.2.e.i.",
"w.<.' ' <.e.e.i.2.2.,.' ,.b._ K M < > > > n n q > > > > > O O 1 1 + $ ~ b.> > > 1 + $ e y > , + * P ) 0.1.1.1.8.<.w.w.i.w.<.e.e.",
"y.<.<.' <.e.i.4.8.,.' ' ,.b.~ : % 1 > > > b.b.9 > > > > > $ % 9 1 % $ ~ b.> > > 1 % $ 1 > > , + : P _ 0.1.1.1.1.w.w.i.i.<.i.e.w.",
"<.y.w.i.e.y.0.8.,.' ' ,.,.} @.G Z = % 1 > ) / d O 1 > S Y $ $ % % $ $ 9 3 > , O & ! ~ 3 > # & K T %.X.1.1.1.1.1.i.y.y.4.<.2.i.y.",
"` w.i.y.i.2.1.1.' ,.1.0.4.4. .c.~ : $ 1 > _ / f % 1 > Y b.$ $ $ $ $ $ 1 > > , + * ~ b.3 > $ * K E @.1.,.,.1.,.a.i.i.i.2.1.4.e.e.",
"] i.<.<.2.8.1.0.1.1.1.4.i.w. .z.~ : $ 1 > y i M V < > r y Z Z : : C ! 3 > > , + * Q b.3 > $ * ! E ..,.,.` ` ,.,.e.i.e.e.4.i.i.2.",
"<.i.w.w.4.1.1.1.1.1.1.0.i.w. .x.Q : * q 4 > 2 S b.5 > > > ^ ^ d - W ^ 3 > , 1 @ f W b.t 4 * : L z...,.` ,.<.` <.<.8.7.w.w.e.e.8.",
"w.r.r.r.e.<.<.8.8.1.<.i.e.2.y.| #.F ! I.E.> < U Y 3 > > > r 9 9 9 q q , > + % C B y q P.E.! W :.o.] <.w.w.w.w.r.7.1.1.<.7.w.e.8.",
"r.r.r.r.e.e.e.e.r.7.e.e.e.<.2.' { E b._.[.> < U U 3 > > > , , > > > > > > $ * ! ^ 3 > (.[.b.) -.4.7.w.w.w.w.w.e.e.<.,.,.7.<.e.2.",
"r.<.<.<.w.r.e.e.r.r.e.e.e.i.i.<.{ E b.Z B > < U ~ d O , > > > > > > > > > 9 . w r , > V C b.) -.r.e.r.w.w.w.i.4.e.<.` ` 4.8.<.i.",
"r.<.` ` e.r.e.w.r.e.e.e.i.<.2.i.O.E ) : $ > < U ~ - $ 1 > > > > > > > > > > > > > > > % $ b.) =.e.e.r.r.i.i.2.<.4.4.<.<.4.8.i.w.",
"r.w.` <.w.w.7.8.<.4.e.e.e.<.y.6.X.E b.: $ , < S ~ : $ 1 > % + 1 1 O % B ^ > > > > > > % $ ) ) ;.e.0.4.e.w.w.i.<.<.y.e.e.0.1.4.2.",
"<.r.<.r.w.7.<.1.1.0.e.e.e.e.2.[ X.c.b.- $ > 3 S ~ : $ 1 > $ # 9 1 % $ ~ b.> > > > > > % $ _ ) +.e.0.<.e.w.p.i.4.e.w.e.e.,.8.7.y.",
"w.w.w.w.e.e.<.<.0.<.i.7.e.e.4.8.[ @.$.F P O O e i B Z @ O 9 9 o O $ $ e t > > > , o + Z P ;.;.s.4.1.0.a.w.w.e.e.e.e.e.e.w.2.4.2.",
"w.w.w.w.w.w.7.7.e.7.<.<.i.e.4.1.1.1.9.c.n.$ % 9 3 U / f * 1 1 + * * * 1 > > > > 1 # $ ~ b.r.w.w.e.1.0.i.e.<.w.e.e.4.i.i.i.y.w.' ",
"<.w.4.i.e.7.,.` <.e.,.` ' <.e.0.1.1.4.~.).$ # . , q r B ! + % C ! ! ! 3 > > > > 1 + $ ~ b.a.r.w.4.1.<.4.e.e.w.i.4.8.8.4.y.y.w.' ",
"7.<.<.4.y.' ` ,.<.4.,.` ` ,.7.<.,.' <.`.[.$ % 2 > > > Y b.$ * ! b.b.b.3 > > > > , # $ ~ _ r.e.w.7.<.7.e.e.e.w.e.7.0.1.1.2.w.e.y.",
"<.,.' ' ] ` ,.<.7.<.e.<.` 7.7.` ` ` ,.d.d.P K @ o 1 > r y 9 9 w y y y , > Y.P.s @ C P *.;.r.e.e.e.i.e.e.e.e.e.7.4.1.1.0.w.w.<.<.",
",.,.' ' ' ` <.a.e.e.e.` ,.,.,.` <.4.4.8.0.b._ : + 1 > > , > > > > > > > > [.].b : ~ ) { <.r.e.e.e.4.e.e.e.<.` ` <.1.0.4.w.<.` ' ",
"1.1.' ' ' ' <.e.e.e.<.` ,.' ` ,.7.e.y.4.0.b._ : + 1 > > > > > > 6 J.E.6 > p a @ * / b.{ 4.e.7.e.2.6.i.e.e.e.` ` <.7.4.i.w.w.` ,.",
"1.1.,.' <.i.e.w.e.e.7.' ' ' ` ,.e.4.i.<.i.b._ : % 1 > , > > > > 8 (.[.8 > > , + : ~ b.{ ' <.,.,.' ' <.w.e.w.e.7.<.,.7.e.w.e.` 7.",
"1.1.1.1.8.4.4.i.7.` ' <.,.` 7.<.7.<.0.,.<.@.&.H ^ K.T.s O O + O @ v N @ O O O A F :.#.8.,.,.,.' ' 1.7.e.w.w.w.w.' ' <.e.e.a.<.` ",
"1.1.1.1.1.1.8.4.<.` ` <.e.w.e.<.2.1.,.,.,.1.} x.Z.).].g * * * * * * * * * * : L c. .i.4.0.1.1.,.0.8.i.w.w.e.7.7.7.] <.<.e.e.e.4.",
"8.0.1.1.1.1.8.4.7.<.7.e.w.w.w.w.4.<.' ,.' ' w.>.l.H.G.K C C C C C C C C C C C f.>.} e.e.i.2.4.0.7.i.i.4.4.0.1.0.i.w.e.7.e.e.e.y.",
"i.0.8.1.8.8.9.4.w.4.<.8.<.w.r.r.w.<.<.2.] ' 4.8.O.E b.b.b.) / b.b.b._ b._ ) ) ;.e.w.i.e.y.4.4.4.<.w.0.2.8.0.1.1.7.e.4.4.i.2.2.2.",
"7.0.1.1.4.4.4.2.<.y.0.1.8.8.2.<.w.w.y.i.2.i.2.<.4.0.1.] w.i.i.9.i.6.<.<.i.e.w.w.7.7.e.e.e.e.2.<.i.i.4.4.<.i.0.,.7.4.1.<.0.1.1.0.",
"7.7.1.9.4.w.4.i.i.e.<.7.7.2.<.7.w.w.w.<.w.w.e.<.7.4.4.w.e.y.<.2.8.[ 7.7.7.i.e.e.4.0.<.8.4.i.4.<.4.<.<.0.7.4.8.7.7.<.1.1.7.0.1.8."
};
