/* XPM */
static char *_4e1fac048ff4f5bb29c7342f179feba0FG7huEdzPm8g0gq[] = {
/* columns rows colors chars-per-pixel */
"64 64 18 1 ",
"  c None",
". c black",
"X c gray3",
"o c #111111",
"O c #161616",
"+ c #1D1D1D",
"@ c #282D1A",
"# c #051D30",
"$ c gray19",
"% c #794D15",
"& c #424A2A",
"* c #5B663A",
"= c #082F4D",
"- c #0A395D",
"; c #9D6A29",
": c #728049",
"> c #AAAD59",
", c #BCD29C",
/* pixels */
"                                                                ",
"                                                                ",
"                                                                ",
"                               #   #                            ",
"                        # ##   ##  ##  #                        ",
"                       ## #-#  #####-####                       ",
"                       #-##-=###-#=#-#=-#                       ",
"                      #-===------==---=--#                      ",
"                      ##-#=======-=====-##                      ",
"                    # ##-##======#=#===-## #                    ",
"                    ####=##===#==#=#==#=####                    ",
"                    ###---==##=#=###==#--###                    ",
"                    ##-=-=-====#==#====-=-##                    ",
"                    #--=----=----====---=--#                    ",
"                    ##-=-==-===----====-=-##                    ",
"                    ###====-=============###                    ",
"                    ##=====-==-====-======##                    ",
"                    ##==-==-===-=-=-====-=##                    ",
"                    ##=====-===-=-=-====-=##                    ",
"                    ##=====-=====-=-===-==##                    ",
"                    ####===-====--=-=====###                    ",
"                     ###=-======-==-==-==##                     ",
"                     ###=--====-======-==##                     ",
"                      ##=--==---=====-==##                      ",
"                      ###--====-==-=--=####                     ",
"                       ###=====#===-==###                       ",
"                       ##*&&@@@@@@@@&&*##                       ",
"                       **&&&&@@@@@@&&&&**                       ",
"                       **&&&&&&&&&&&&&&**                       ",
"                     **&&&&&&&&&&&&&&&&&&**                     ",
"                     **&&&&*::,,>>***&&&&**                     ",
"                    *&&&&**::,,,,>*****&&&&*                    ",
"                    &&&&&**::,,,,,::***&&&&&                    ",
"                    &&&&**::,,,,,:::****&&&&                    ",
"                    &&&&**::>>>>:::*****&&&&                    ",
"                    &&&&&**:>>>>:******&&&&&                    ",
"                    @&&&&**************&&&&@                    ",
"                    X@@&&&&**********&&&&@@X                    ",
"                     @@&&&&&&&&&&&&&&&&&&@@                     ",
"                      @@@&&&&&&&&&&&&&&@@@                      ",
"                      @@@@@&&&&&&&&&&@@@@@                      ",
"                       @@@@@@&&&&&&@@@@@@                       ",
"                       @@@@@@@@@@@@@@@@@@                       ",
"                        X@@@@@@@@@@@@@@X                        ",
"                        ..XXXXooooooooX.                        ",
"                       ..XXXXXXooooooooXX                       ",
"                       ..XXXXXXoooo+$ooXX                       ",
"                      ..XXXXXXXXoo++$$ooXX                      ",
"                      ..XXXXXXXXoo++$$ooXX                      ",
"                      ..XXXXXXXXoo++$$ooXX                      ",
"                      ..XXXX..XXoo++$$ooXX                      ",
"                       ..XXX..XXoo+++$ooXX                      ",
"                       ..XXX..XXoo++++oo..                      ",
"                         .XX...XXoo++ooo.                       ",
"                         ......XXooooooX                        ",
"                          .......XooooXX                        ",
"                          OOOOO...%%;;..                        ",
"                           OOOOOO.%%;;..                        ",
"                               OOOOOOOOO                        ",
"                                 OOOOOO                         ",
"                                                                ",
"                                                                ",
"                                                                ",
"                                                                "
};
