/* XPM */
static char *result[] = {
/* columns rows colors chars-per-pixel */
"64 64 39 1 ",
"  c black",
". c gray3",
"X c #121212",
"o c #1D1D1D",
"O c #282D1A",
"+ c #051D30",
"@ c gray19",
"# c #4E2E1A",
"$ c #613C00",
"% c #794D15",
"& c #424A2A",
"* c #52473E",
"= c #5B663A",
"- c #082F4D",
"; c #0A395D",
": c #984B1C",
"> c #9D6A29",
", c #985941",
"< c #728049",
"1 c #BE843F",
"2 c #BC883E",
"3 c #BF8442",
"4 c #BF8942",
"5 c #AAAD59",
"6 c #C18545",
"7 c #C38C46",
"8 c #C3874A",
"9 c #C48C49",
"0 c #C88E4E",
"q c #C49146",
"w c #C59149",
"e c #C89049",
"r c #E48676",
"t c #2D81C1",
"y c #F2B586",
"u c #FFDAB0",
"i c #9AB9D2",
"p c #D7D7D7",
"a c #FDFDFD",
/* pixels */
"8w9989qq0889www09789qw9www9wqw9q99q079336799799663364w98wq9w90w4",
"9qq963qq9888889909797479ww9w978883663099e87988863317qww9qq790qq4",
"qqq637q98888666666733338988q788888333883888888877q999w9908889673",
"wq7379998888866313333799888088+0808+88888889880qwwqwwq9888883333",
"7q747q09888866809777wqwq+9++98++87q++q0+9990qqqqq77qqq9996863347",
"qqq7wqqq999900889w9wqqq++q+;+8+++q++;++++qqqq741331677q997613499",
"q7334qqqqwwwqq9479qqqqq+;++;-++;++-+;+-;+qqqq92334676689q7177e79",
"073389qqqqqwqq0q9qqqqq+;---;;;;;-;-;;;-;;+qqqq9899797888qq79q979",
"988089wwq976636734490w++;+------;;-----;++qqqqw888888888qqqqq680",
"9888799w763333664333+9++;++------+-+---;++7+qqw489898988qqqeq060",
"98849988368688889888++++-++--+---+-+--+-++++qqw989908888qwqq9988",
"980qq988688888888888+++;;;--+-+--+++--+;;+++qqqqwqweeq7ewq7q9988",
"789ww888888888888888++;-;-;---+---+----;-;++qqqqqqqq77qqwqqq9888",
"wwwq0888888888888888+;;-;;;;-;;;-----;;;-;;+qqqqqqqqee999ewq9889",
"9wq99988880888888888++;-;++++-;;;;;++++;-;++qqqq99q0888890q9q799",
"8wq49900888888888886+++-++++++----++++++-+++qww9w8q9888889qq7qe9",
"8w4wwwww099880ww990qq+++++yy++++++++yy+++++qq989w9qw888889qq09w9",
"4w4ww4wwqq98094qwwqqq++++yyyyy++++yyyyy++++qw980wwqw988888wq989w",
"840wwwwwqq789qqwqqq97++++yy**yyyyyy**yy++++qq9qeqwwq798877wqw994",
"00404wqwqq989979wq99$$++yy****yyyy****yy++$$qqewqwqqq999qqqqqw93",
"q989wwwwqqq098689wqq$$+,rypp##yyyy##ppyr,+$$qqeqqqqww4wwqqqwwq93",
"qq99w4wwqqqw08984qqq0$$,rrpp##yyyy##pprr,$$qqqqqqqwwwww9wqq77q94",
"qqqqqqwwq97q9778ww743$$$rraa::yuuy::aarr$$$qqqqqqqqw49349w934wqw",
"w9qqqqe5e7qeqqqqq91176$$rrra:yuuuuy:arrr$$qq78qqqqq9ww33qqq434qw",
"w4www4w4wwwwqqqqwwq9wq$$,rryyyuuuuyyyrr,$$9q90090qqq77167qqq4ww8",
"qqww040wwwwqqqqqw9999ww$$,,rryyuuyyrr,,$$99998877qqqqq77qqqqqqq4",
"4qw98000www77708888839<$$,,rryyyyyyrr,,$$<8988897qqqqqqqqqqwwwq9",
"qq988890wwqq7e88888888=5=$$,rryyyyrr,$$=5=e9wqqqqqqqqqqqqq999wqq",
"qw4088338489998808808=&&&$$$$$$$$$$$$$$&&&=qqqqqq07qqeeq778089qw",
"www08833886666887990=&&&&..$$$$$$$$$$..&&&&=qqe0077q7769988889q9",
"w4ww0843336366>04w99&&&&<=.XooooooooX.=<&&&&qe99e87qq9898988848w",
"qwww090w336868008888&&&=<<XooooooooooX<<=&&&q797q7eqqe77e0ww0889",
"q77qqqqq997087888888&&OO=<<oooooooooo<<=O&&&80qqqqqqqqqqeqqqe989",
"q9qqqqqqqqqeq0998889&.OOO=<oooooooooo<=OOO.&9qqqqqqqqqqqqqqqqq7e",
"7qqqq77qqqqqqqqqw99q&.oXX;;oooooooooo;;XXo.&q999q7q7766677qqqqq7",
"9qqqq214wqqqqqqqqwqq..oo;;;;;oooooo;;;;;oo..98986611166817qq0qqe",
"qwwqq734wqq477qqqqqq....aai;;oooooo;;iaa....8883666>008834ww949w",
"qq78qq7qww7460qqwwqq....aiii;;oooo;;iiia....3333336660888w49q0wq",
"w7337wwww7336677w9wq..ooiiit;;oooo;;tiiioo..>048688888889qwwwqwq",
"ww734ww988336668880wq.Xoiit;;.ooooX;;tiioX.8008888888888wqww4www",
"4qwwqw04633666963899q...;;;;;XooooX;;;;;...8848888888888wwww4w4w",
"4qwww98836890qq97889w7...;;XXooooooXX;;...8888888688687qwww980ww",
"4ww400888680qqqqq99qw88...XXXooooooXXX...98888888633334qwwww0ww0",
"4qww43048889qqqwqqqqww9w..XXoooooooo.X..qqw98988331374444w9w4ww4",
"qqqq0w04989qq79779qqqqqq  ........XXXX. qqqqw9q9847qwwwww989www4",
"qqqw4www7e9qq79666977qq  ........XXX.XX..4qqwwwwwqqqw4qqw934ww0w",
"qq44wqwwqqeqqqq76137qwq  .....X.XXooXXX..qwq44qqqqqq4wwww44404w4",
"q734qqqqqqqqq9707634qw  ......XXX.ooXXXX..wq4qwqqqqqw0w40w44000w",
"q727qq908qqqq9w98834wq  .......XXXoo@X.X..qqqqqqq8eqqqw440qw88w9",
"qqq7qq8889qqqqw8888499  ........XXoo@@XX..qqqqqq999qqqwwqwqw4940",
"q4qqqq7997qqwww8883338  ....  ..XXoo@@XX..qqqqqq789qqqqqqqwqwwww",
"qqqqqq77qq87www83807888  ...  ..X.ooo@XX..qqqqqqq80eq7wqqwwww4w4",
"wqqqww717q6637q888www80  ...  ..XXooooXX  qqqqqqq89eqqqq0440w0w4",
"998w9416776134q7334wqq9qq ..   ..XXooX.X 779qqqq799qqwq9004044w4",
"733341477qq767763349qqww9      ..XXXXXX.3666eqqqqqqqqq770304www4",
"48333379eq7137137q9889qq7w       ..XXX..11317qqqeqqqq7714440ww44",
"00,344wwqq766136qww989qqwqXXXoX.  %%>>  w9637wqqw9wwqq43000w4444",
"00034ww4qq711616qwwwqwqqwqqoXXXXX %%>>  ww833766344wqqq9440wwwww",
"0803000w9117647qw88889wqwqwqww9oooXXXXXoq4846666339qqqqw4304ww73",
"8830334w7367q7q7043383wqqww993397XXoooXqqww9988680wqqqqq0440qwww",
"88888880q77wqqq7q44333q7q9764889qqqq779ewqwq4w999ww99989wqwwqww4",
"00809804ww887qqqqqww3309990>899www0qqqqqwwwwwqw9ww9998889wwwqw0w",
"q9889ww4qw0889794wwwwwq70700qww00999qqqqqwwwwww9qq09ww899w899888",
"7809www9wwq979w7ww4qwqq770eqww49849e9q909999ww99ww499w9999380084"
};
