/* XPM */
static char *_8920c9e9865480f8c448dde9094bc50YjSu2Yp1hfQNL4Eg[] = {
/* columns rows colors chars-per-pixel */
"64 64 31 1 ",
"  c None",
". c black",
"X c gray3",
"o c #111111",
"O c #161616",
"+ c #1D1D1D",
"@ c #282D1A",
"# c #051D30",
"$ c gray19",
"% c #4E2E1A",
"& c #613C00",
"* c #794D15",
"= c #424A2A",
"- c #52473E",
"; c #5B663A",
": c #082F4D",
"> c #0A395D",
", c #984B1C",
"< c #9D6A29",
"1 c #985941",
"2 c #728049",
"3 c #AAAD59",
"4 c #E48676",
"5 c #2D81C1",
"6 c #F2B586",
"7 c #BCD29C",
"8 c #FFDAB0",
"9 c #9AB9D2",
"0 c #D7D7D7",
"q c gray98",
"w c white",
/* pixels */
"                                                                ",
"                                                                ",
"                                                                ",
"                                   #                            ",
"                               #  ##   ## #                     ",
"                           #  ## ### ##># ##                    ",
"                          ####>###>##::>##>#                    ",
"                          #>:#>#::>>>>>>:::>#                   ",
"                         #>>:>>>:>:::::::#>##                   ",
"                         ##>:::::#::::::##>## #                 ",
"                       # ##>:::#:#::#:::##:####                 ",
"                       ###>>#::###:#:##::>>>###                 ",
"                       ##>:>::::#::#:>::>:>:>##                 ",
"                       ##>:>>>::::>>>::>>>>:>>#                 ",
"                       #>>:>##::>>>>:#####>:>##                 ",
"                        ###::::#:::########:###                 ",
"                         ##:#::######6#88#####                  ",
"                         ##::#:#####666688###                   ",
"                         ##:::#####666--88811                   ",
"                         ##:::&####66----8811                   ",
"                         ##:#:&&4666600%%8811                   ",
"                         ###:&&44666600%%8811                   ",
"                         ##:#&&116666qq,,8811                   ",
"                          ####&&166666q,66811                   ",
"                          ####&&&4666666666&&                   ",
"                           ####&&444666666&&                    ",
"                    ========###1114444444&&&                    ",
"                  ============##11144444&&                      ",
"                  ==;2222;;;===@@@@@&&&&&&                      ",
"                ==;;222222;;;;=@@@@@@@&&X                       ",
"                ==;;2273322;;;;;;;;=@@@@@                       ",
"              ==;;227733322;;;;;;;;==@@@@                       ",
"              ==;227773322;;;;;;=+XXX+++>>                      ",
"             ==;;2277322;;;;;;==+XXXXX+>>>>>                    ",
"             ==;;;222222;;;;;;==Xoo+XXX99w>>                    ",
"             ==;;;;;22;;;;;;===Xoooo+XX999w>>                   ",
"             ==;;;;;;;;;;;;;==@ooXXo+++5999>>                   ",
"             ===;;;;;;;;;;;==@XooXXXo++559>>                    ",
"             ===;;;;;;;;;;;==XX+ooXXXXX>>>>>                    ",
"             =====;;;;;;;;===XX+++oXXXXX>>                      ",
"             @@@==;;;;;;;;==@XX+++ooooXXX                       ",
"              @@@@==;;;;==@@@XX++++ooooXX                       ",
"              @@@@========@@@.Xoo++++ooX.                       ",
"               @@@@@====@@@@XXoo++++oooXX                       ",
"               @@@@@@@@@@@@@XXoo++++ooo..                       ",
"                @@@@@@@@@@@XXoo+++ooooo..                       ",
"                @@@@@@@@@@@XXoo+++ooooX..                       ",
"                  @@@@@@@@ XXoo++oooXXX..                       ",
"                  @@@@@@@@ XX$$++oooXXX..                       ",
"                    @@@@   XX$++oooXXXXX..                      ",
"                           ..+++oo..XXXX..                      ",
"                          ...++o.....XXXX..                     ",
"                         ...o++......XXXX..                     ",
"                         ..oo++......XXXX..                     ",
"                         ..oo++......OO**<<                     ",
"                         ..oo++....  OOO*<<                     ",
"                         OO**<<**    OOOOOO                     ",
"                         OOO*<<**    OOOOO                      ",
"                         OOOOOOOO                               ",
"                          OOOOOO                                ",
"                                                                ",
"                                                                ",
"                                                                ",
"                                                                "
};
