/* XPM */
static char *_91f626e37e545a2d6feb7a944fd3f73lGwhgNEoirHxUJt1[] = {
/* columns rows colors chars-per-pixel */
"64 64 163 2 ",
"   c black",
".  c gray3",
"X  c #121212",
"o  c #1D1D1D",
"O  c #282D1A",
"+  c #051D30",
"@  c #4E2E1A",
"#  c #613C00",
"$  c #794D15",
"%  c #424A2A",
"&  c #52473E",
"*  c #5B663A",
"=  c #082F4D",
"-  c #0A395D",
";  c #984B1C",
":  c #9D6A29",
">  c #985941",
",  c #17A03F",
"<  c #1BAA3F",
"1  c #20CC36",
"2  c #21D533",
"3  c #23DB32",
"4  c #2BDB3B",
"5  c #26EC2E",
"6  c #24E131",
"7  c #2BED33",
"8  c #2DE538",
"9  c #30E33D",
"0  c #32EE3B",
"q  c #138E43",
"w  c #159343",
"e  c #199547",
"r  c #169B41",
"t  c #1B9A46",
"y  c #1F9C4B",
"u  c #22954F",
"i  c #209C4B",
"p  c #2B9B56",
"a  c #319D5B",
"s  c #25A24D",
"d  c #2EA455",
"f  c #2DAC53",
"g  c #31A756",
"h  c #3FA665",
"j  c #728049",
"k  c #3DEE43",
"l  c #4FDE5C",
"z  c #42EF49",
"x  c #44F04C",
"c  c #4CEE53",
"v  c #54E55F",
"b  c #55ED5C",
"n  c #4CF053",
"m  c #5EEE6D",
"M  c #5AF563",
"N  c #5EF669",
"B  c #6BEE68",
"V  c #77EA6E",
"C  c #62F66B",
"Z  c #6BF36F",
"A  c #62F86C",
"S  c #60F266",
"D  c #63E875",
"F  c #76EE71",
"G  c #7AEF75",
"H  c #7FEE79",
"J  c #66F971",
"K  c #6CFA76",
"L  c #6EFA79",
"P  c #6BF578",
"I  c #7AF57D",
"U  c #71FB7C",
"Y  c #71F474",
"T  c #BE843F",
"R  c #BE8442",
"E  c #BE8943",
"W  c #BF8B4B",
"Q  c #B6934A",
"!  c #BD954C",
"~  c #B49B4F",
"^  c #BB9E4E",
"/  c #AC9F51",
"(  c #BA9651",
")  c #BC9A50",
"_  c #B69E50",
"`  c #B4A44F",
"'  c #AEA455",
"]  c #ADA956",
"[  c #ADA658",
"{  c #AAAD59",
"}  c #A5AF58",
"|  c #B5A453",
" . c #B2AB55",
".. c #B8A350",
"X. c #AAB359",
"o. c #C18544",
"O. c #C38C46",
"+. c #C3874A",
"@. c #C48A49",
"#. c #C38D48",
"$. c #C38D4A",
"%. c #C58C49",
"&. c #C48F49",
"*. c #C48D4A",
"=. c #C58E4A",
"-. c #C78E49",
";. c #C68E4C",
":. c #C48C49",
">. c #C88E4E",
",. c #C39147",
"<. c #C59147",
"1. c #C59146",
"2. c #C49146",
"3. c #C39149",
"4. c #C59048",
"5. c #C5914A",
"6. c #C59149",
"7. c #C49449",
"8. c #E48676",
"9. c #D2A874",
"0. c #98C45E",
"q. c #8CDD6F",
"w. c #90D66D",
"e. c #8CDB70",
"r. c #A7C167",
"t. c #84E575",
"y. c #84E976",
"u. c #88E273",
"i. c #75FC80",
"p. c #75FC80",
"a. c #7EFC88",
"s. c #2D81C1",
"d. c #F2B586",
"f. c #8AEF84",
"g. c #82FB8A",
"h. c #87FD90",
"j. c #8AFC93",
"k. c #91FC9A",
"l. c #96EC8B",
"z. c #98FDA0",
"x. c #B0E4BC",
"c. c #A9FEB0",
"v. c #A8F4A6",
"b. c #FFDAB0",
"n. c #9AB9D2",
"m. c #BEEBC6",
"M. c #BDE1CA",
"N. c #D7D7D7",
"B. c #C5ECCF",
"V. c #C4E3D0",
"C. c #D3EADC",
"Z. c #D6FDD9",
"A. c #DDFDDF",
"S. c #C4FCC8",
"D. c #E1F1D4",
"F. c #E4FEE5",
"G. c #E2F1E8",
"H. c #EEFFEF",
"J. c #E4F7E7",
"K. c #EEFFF0",
"L. c #F1FBF3",
"P. c #FDFDFD",
"I. c #F8F1E8",
/* pixels */
"@.;.$.@.O.$.*.O.*.*.@.@.;.;.*.*.@.:.:.*.4.4.@.$.3.$.*.<.<.*.*.*.$.$.4.;.$.:.R R o.@.*.4.O.:.:.o.o.R R R O.*.O.@.<.4.@.$.*.*.4.:.",
"$.4.<.O.o.o.<.<.*.+.+.+.+.:.@.:.-.@.@.O.O.E O.$.4.4.*.<.<.@.@.@.+.o.o.o.o.-.*.*.@.@.O.@.+.+.+.o.R o.R O.<.<.4.*.<.4.@.@.*.5.O.O.",
"<.<.<.o.o.o.4.O.+.+.+.+.+.o.o.o.o.@.o.T R R R @.) y.U p.i.i.p.p.U i.i.i.p.p.I ~ +.+.+.+.+.+.+.@.O.,.*.4.O.4.*.$.:.:.+.+.@.o.T O.",
",.<.O.R O.<.@.:.+.+.+.+.+.o.o.T T T o.o.R O.@.) [ F K h.j.K + K K K K + K K Y [ ( +.+.:.+.:.*.O.3.,.<.$.$.4.$.+.:.+.+.+.R o.T R ",
"O.,.O.E O.<.*.*.@.+.+.:.+.+.o.>.*.O.O.O.<.<.7.w.+ z + + F.0 + + 0 k 0 + + 0 k + q.! *.-.<.,.<.O.<.O.1.O.1.1.*.*.-.o.+.o.R T O.O.",
"O.<.,.O.<.<.<.<.O.@.*.*.:.:.+.:.*.*.*.<.1...| + + 8 + - + 6 + + + 6 + + - + + + +  .^ 7.<.O.O.R T R T E O.O.4.*.4.@.o.T T R *.:.",
"5.O.o.R O.4.<.<.4.*.3.3.<.<.O.:.O.*.1.1.1.H G + - + + - = + + - + + = + - + = - + F y.^ <.O.T T o.o.O.o.o.o.o.@.<.O.T E O.-.@.O.",
"5.O.R o.o.*.4.<.<.<.<.4.<.-.-.-.-.5.,.,.1.U + - = = = - - - - - = - = - - - = - - + U ..<.,.O.O.*.*.O.@.@.+.+.@.,.<.O.O.5.O.O.*.",
"*.+.+.+.+.:.4.4.<.-.@.o.o.o.o.O.R R R @.$.U + + - + = = = = = = - - = = = = = - + + p...<.,.O.+.+.+.+.:.+.+.+.@.<.<.<.<.<.o.@.-.",
"*.@.@.+.:.*.*.$.E T R o.R R R o.+.+.R R + i.+ + - + + = = = = = = + = + = = = - + + p.+ <.<.4.@.+.+.+.+.+.+.+.+.4.4.<.<.<.:.+.@.",
":.+.:.@.O.*.@.+.o.o.o.+.+.+.o.+.+.+.+.t.+ + + + = + + = = + = = = + = + = = + = + + + + i.<.4.*.+.;.-.@.@.:.@.@.4.4.<.<.-.:.+.+.",
":.+.-.4.O.:.+.+.o.+.+.+.+.+.+.+.+.+.+.p.+ + + - - - = = + = + = = + + + = = + - - + + + i.<.4.<.5.5.1.5.5.O.@.-.4.<.<.<.>.:.+.+.",
"*.O.;.4.*.@.+.+.+.+.+.+.+.+.+.+.+.+.+.H + + - = - = - = = = + = = = + = = = = - = - + + p.<.<.<.4.,.,.7.O.1.O.5.5.<.<.4.*.+.o.@.",
"O.*.4.O.5.@.+.+.+.+.+.+.+.+.+.+.W ( ( f.+ - - = - - - - = - - - = = = = = - - - = - - + K ^ ..3.<.4.<.<.-.-.-.@.O.4.<.4.@.+.+.@.",
"@.4.<.$.@.+.+.+.+.>.+.+.+.+.+.+.( e.H F.+ + - = - + + + + = - - - - - + + + + - = - + + 0 H y...*.:.<.O.@.+.+.+.:.-.5.<.O.O.*.:.",
"@.4.,.O.W ;.>.+.+.+.+.>.+.+.+.@.( y.U K.+ + + = + + + + + + = = = = + + + + + + = + + + 5 U I | *.:.1.*.+.+.+.+.+.@.5.1.O.5.5.:.",
"@.$.,.,.,.,.3.4.*.*.:.+.+.*.3.4.) H p.x k + + + + + d.d.+ + + + + + + + d.d.+ + + + + 6 5 p.I ..<.*.<.4.O.+.+.+.+.+.<.4.*.:.*.*.",
"@.$.,.<.3.,.,.<.<.4.:.+.>.-.O.O.^ H p.0 7 + + + + d.d.d.d.d.+ + + + d.d.d.d.d.+ + + + 6 5 p.I | 4.4.<.4.@.@.+.+.+.:.<.<.*.@.$.*.",
"+.;.*.*.4.4.,.,.<.<.O.@.*.5.<.<.^ y.p.0 5 + + + + d.d.& & d.d.d.d.d.d.& & d.d.+ + + + 6 5 p.G | <.4.<.<.O.@.+.:.:.O.<.<.<.*.O.E ",
"$.$.O.:.*.4.,.<.<.<.:.@.:.*.O.! | G L 0 # # + + d.d.& & & & d.d.d.d.& & & & d.d.+ + # # 6 a.g. .! 7.<.,.-.O.@.*.-.<.,.<.<.4.*.R ",
"<.*.+.:.*.<.7.<.<.<.<.*.+.+.( w.G k k < # # + > 8.d.N.N.@ @ d.d.d.d.@ @ N.N.d.8.> + # # , F.F.l.q. .,.,.4.<.<.<.<.,.<.<.<.4.*.R ",
",.<.*.$.*.O.<.,.5.4.<.4.*.+.( t.U x k t q # # > 8.8.N.N.@ @ d.d.d.d.@ @ N.N.8.8.> # # y q F.A.j.y. .,.3.7.<.O.$.<.<.O.O.O.4.<.R ",
",.3.4.$.,.,.,.,.4.@.O.1.5.O.! t.g.Z.F.p q # # # 8.8.P.L.; ; d.b.b.d.; ; P.L.8.8.# # # y q z x K H  .7.4.O.O.R o.4.4.O.T R <.7.3.",
",.$.O.,.,.<.<.,.<.-.1.5.1.1.^ t.h.K.P.a q 5 # # 8.8.8.P.; d.b.b.b.b.d.; P.8.8.8.# # i.i q 7 7 J H  .,.4.@.$.R R O.<.,.O.T O.<.*.",
",.,.4.<.4.O.4.3.<.4.5.<.,.I F z 9 g a w q 5 # # > 8.8.d.d.d.b.b.b.b.d.d.d.8.8.> # # 0 r q r , 4 0 Z y.7.O.O.T o.<.<.<.<.O.<.O.O.",
",.,.<.4.*.@.4.4.,.,.@.O.,.p.K 0 6 r q q q 5 6 # # > > 8.8.d.d.b.b.d.d.8.8.> > # # 6 5 r q q w 3 0 A i.1.<.O.O.O.<.<.<.<.,.,.*.@.",
",.<.O.:.+.:.;.4.1.<.O.O.,.p.K 0 6 r q 3 5 w j # # > > 8.8.d.d.d.d.d.d.8.8.> > # # j 5 K p.P.L.c 0 A p.1.<.<.1.1.,.<.<.4.4.,.<.O.",
",.*.o.+.+.+.@.;.5.5.1.,.3.p.K 0 6 r q 3 6 q * { * # # > 8.8.d.d.d.d.8.8.> # # * ] * 5 L p.L.J.c 0 A U 1.1.,.1.1.,.<.*.O.$.4.<.4.",
"4.4.@.+.+.+.+.R @.+.+.:.@.p.K k 3 r q r , * % % % # # # # # # # # # # # # # # % % % * L p.h g 8 0 A U 1.1.1.-.1.-.@.+.+.@.:.O.4.",
"<.$.;.@.+.+.o.R +.o.o.o.o.p.K 0 6 g a w * % % % % . . # # # # # # # # # # . . % % % % * p.q e 3 7 A p.1.1.@.@.O.@.+.+.+.+.:.*.*.",
"<.,.3.4.>.@.@.o.o.R o.R o.i.K k k x.V.p % % % % j * . X o o o o o o o o X . * j % % % % p.q w 3 0 A p.1.1.@.o.@.@.@.@.:.:.+.$.*.",
"4.4.<.4.*.4.*.O.o.o.o.o.+.I K 0 z F.P.a % % % * j j X o o o o o o o o o o X j j * % % % p.q w 3 0 A p.1.1.-.-.-.-.-.<.*.:.:.o.$.",
"4.<.<.,.1.1.<.<.O.*.@.*.$.p.K 0 3 g a w % % O O * j j o o o o o o o o o o j j * O % % % U q u m.Z.k.p.O.<.<.<.<.<.<.1.1.<.*.@.@.",
"4.O.<.,.1.1.1.1.4.<.<.4.4.p.K k 6 r q q % . O O O * j o o o o o o o o o o j * O O O . % p.q u C.H.k.p.5.<.4.4.4.<.<.<.<.<.<.<.O.",
"O.$.<.<.1.,.O.,.4.<.,.,.4.i.K 0 6 r q 1 % . o X X - - o o o o o o o o o o - - X X o . % p.q e l S L p.O.O.R O.o.O.O.,.<.<.7.<.4.",
"<.4.<.<.1.T T T 3.,.,.7.7.i.L z 9 t q 3 . . o o - - - - - o o o o o o - - - - - o o . . p.q w 3 0 A I o.R R R +.T O.<.<.4.*.4.4.",
"<.4.4.4.4.O.T E 4.,.<.E O.p.g.S.m.p q , . . . . P.P.n.- - o o o o o o - - n.P.P.. . . . U q w 3 0 A p.R o.R +.+.o.E 4.4.*.@.O.3.",
",.O.O.O.O.<.O.,.,.<.O.E o.p.h.F.G.a q q . . . . P.n.n.n.- - o o o o - - n.n.n.P.. . . . i.w w 3 0 A p.+.o.+.+.+.o.$.O.*.4.$.,.4.",
"3.O.R R O.<.<.4.*.O.o.R o.p.U C M t q q . . o o n.n.n.s.- - o o o o - - s.n.n.n.o o . . f q w 3 7 A U @.+.+.+.+.*.,.3.4.,.O.4.4.",
"3.O.O.R O.3.5.*.@.+.R R R p.L 0 2 r q q q . X o n.n.s.- - X o o o o X - - s.n.n.o X . r q q w 3 0 A U @.+.+.+.+.3.,.4.4.O.4.,.<.",
",.,.3.4.4.4.:.@.o.R : >.@.7.| V C 8 6 w q . . . - - - - - . o o o o X - - - - - . . . y q 6 6 N F } ( +.+.+.o.@.4.4.4.$.O.4.,.4.",
"T ,.4.4.4.$.+.+.R o.>.>.5.5.^ t.P 0 5 r q U . . . - - X X o o o o o o X X - - . . . i.i q 5 7 J H ' +.o.o.o.@.@.4.4.4.$.+.*.,.4.",
"R 4.,.O.$.+.+.+.+.+.+.*.5.<...t.J 0 5 r q f f . . . X X X o o o o o o X . X . . . K i.i q 5 7 J H / o.o.o.R T o.4.4.4.4.*.4.4.$.",
"O.4.3.,.$.@.+.+.+.+.+.*.4.4.^ u.Y 0 7 s u q t D . . X X o o o o o o o o X X . . 0 P P d u 7 0 Z t./ R T O.o.O.T $.O.*.4.,.<.4.@.",
"O.1.1.,.<.O.$.$.:.+.*.4.<.O.3._ ] B J B.C.q e D   . X X X X . . . . X . X X .   m f i M.C.J Z X._ E O.,.,.<.<.<.*.+.O.*.<.<.4.@.",
"1.1.1.,.,.<.<.<.O.<.4.4.<.@.:.R Q H i.H.P.q e . . X . X X X X . . . X X X X X . . i q G.P.p.I | ;.*.<.7.7.,.7.1.<.O.R o.O.*.4.$.",
"1.1.O.O.<.<.<.<.1.1.<.<.<.4.4.O.Q H U C N q e . . X X . o o . X X X o o X . X . . w q M N p.I | 1.<.1.1.7.,.4.4.<.O.T T @.@.$.<.",
"1.E T T 1.1.<.<.1.<.<.<.4.O.*.4.) H I 0 5 q . . X X X o o o X X X X o o o X X X . . q 3 5 I I | <.<.1.1.4.4.$.O.*.*.O.O.*.@.5.<.",
"<.O.T O.,.<.*.:.:.*.<.<.<.O.3.$.( H p.0 5 q . . X X X o o o . . . . o o o X X . . . q 6 5 p.I ` <.:.*.<.,.<.3.O.O.4.<.1.:.@.*.$.",
"1.<.,.<.<.<.O.+.+.:.<.<.<.<.$.@.( y.p.0 5 q . . X X o o o o . . . . o o o o X X . . q 6 5 U I ` <.:.O.<.<.7.4.*.,.,.<.<.o.@.$.3.",
"1.,.,.,.<.<.@.@.O.O.4.<.<.<.$.@.W ' ' Z N 2 . . . X o o o X . . . . X o o o X X . . 3 M A  . .7.*.:.:.4.,.<.4.1.<.<.<.<.,.$.*.4.",
",.O.,.,.1.<.<.O.4.O.@.*.4.4.*.:.+.+.;.y.a.5 . . . X o o X X . . . . X X o o X . . . 5 L p.,.,.,.O.+.:.4.<.,.<.<.<.*.4.4.3.3.<.R ",
",.O.*.<.<.<.O.T O.<.o.o.R O.<.:.+.@.$.D.F.5   . . X X X X X . . . . . X X X X . .   5 K p.1.<.,.5.:.:.5.1.<.<.4.*.@.@.:.3.3.,.R ",
"O.O.O.*.*.E T T O.<.o.T R o.<.@.R R O.I.P.5 5   . . . X X   . . . . . X X . . .   6 5 K p.1.<.,.5.o.O.<.<.4.<.5.;.+.+.O.$.,.<.3.",
"@.o.R R R T O.@.O.<.<.o.T @.O.T T R O.9.9.J A 4 . . . . . . .     . . . . . . . 4 M A }  .5.1.1.1.<.<.<.<.,.<.O.*.:.+.:.4.,.O.O.",
"O.o.R R o.T O.O.<.<.<.T o.O.T o.O.*.@.+.@.i.U X . . . . .             . . . . . X K U Q O.1.1.1.5.-.<.<.<.O.T T o.O.:.*.,.O.T R ",
"+.+.R R R E ,.,.<.<.O.T o.o.T o.O.4.4.4.:.p.o X : : $ $       q p       $ $ : : X X p.Q *.<.O.1.3.$.4.4.<.<.O.T O.*.-.4.<.,.O.T ",
"+.+.o.R O.*.,.3.<.<.O.o.o.T T T <.4.4.4.*.p.X X X : $ $     q w a G.    $ $ : X o X p.! o.O.o.o.R R O.<.<.<.O.*.o.O.O.<.<.<.T @.",
"+.+.+.+.+.:.5.4.O.T T @.o.T -.1.O.@.:.o.O.[ X o X o X o X o 2 2 4 b X X o X o X o X ] W o.o.o.R R +.O.<.,.7.<.4.o.R O.<.<.<.O.R ",
"+.+.+.+.+.+.+.$.O.o.T O.<.1.<.O.$.+.o.o.+.o.7.X X X X o X X 7 7 7 7 X o X X o X X ^ 5.*.:.+.+.o.+.@.<.<.<.<.1.O.*.O.E <.<.<.<.*.",
"+.@.+.+.+.+.@.5.<.O.*.*.,.,.,.O.4.O.R o.R R ,.X.r.v.c.J M M M M M M M M M M M 0.X.7.4.4.4.4.*.*.*.4.4.*.*.:.+.@.4.,.4.<.,.,.,.4.",
"4.$.+.+.@.+.;.$.4.4.@.;.O.,.<.<.,.O.O.$.E R *.@.) y.p.p.i.i.U i.U i.i.p.i.i.I | 4.<.3.7.3.<.*.4.<.<.:.*.*.:.+.+.*.4.4.*.4.*.*.*.",
";.@.@.+.*.4.*.$.3.4.@.+.+.$.*.O.,.,.3.4.$.4.*.O.*.*.@.E ,.4.5.5.5.5.*.O.4.<.<.4.4.O.4.4.<.<.O.O.4.<.*.*.4.-.:.:.O.-.:.+.-.+.+.:.",
"*.:.;.;.4.O.4.4.4.<.O.O.:.O.,.*.,.,.O.,.<.3.<.<.O.3.3.,.4.3.$.+.$.+.O.5.*.4.4.*.*.:.:.O.*.4.*.O.*.,.$.O.O.*.+.-.5.O.o.+.*.+.+.:."
};
