/* XPM */
static char *bd41989548184c52a812144b2b4214d0CYaR0oD3ECCjG2VM[] = {
/* columns rows colors chars-per-pixel */
"64 64 173 2 ",
"   c #020102",
".  c #0B0302",
"X  c #04050B",
"o  c #06090C",
"O  c #090808",
"+  c #130C0B",
"@  c #100401",
"#  c #080A18",
"$  c #100F10",
"%  c #0F1117",
"&  c #131313",
"*  c #1D1D1D",
"=  c #13161E",
"-  c #251C1A",
";  c #251D17",
":  c #35160D",
">  c #282D1A",
",  c #3B2D1D",
"<  c #1A1C23",
"1  c #161C26",
"2  c #051D30",
"3  c #1F1F32",
"4  c #1E212C",
"5  c #292828",
"6  c #222226",
"7  c #382E26",
"8  c #2B2E3D",
"9  c #212735",
"0  c #2D333A",
"q  c gray19",
"w  c #353939",
"e  c #3D3228",
"r  c #4E2E1A",
"t  c #5B351B",
"y  c #582F1C",
"u  c #613C00",
"i  c #62381E",
"p  c #483926",
"a  c #493929",
"s  c #443726",
"d  c #583421",
"f  c #503A27",
"g  c #794D15",
"h  c #76441B",
"j  c #7A431B",
"k  c #424A2A",
"l  c #55422E",
"z  c #544231",
"x  c #52473E",
"c  c #5E4D3A",
"v  c #5B4837",
"b  c #4D463A",
"n  c #7F4A27",
"m  c #7B4620",
"M  c #644B36",
"N  c #634A39",
"B  c #715135",
"V  c #5B663A",
"C  c #082F4D",
"Z  c #0A395D",
"A  c #333A47",
"S  c #2F3A45",
"D  c #36444F",
"F  c #344351",
"G  c #3A4657",
"H  c #3F4D60",
"J  c #3D5769",
"K  c #5F5140",
"L  c #41445A",
"P  c #424C57",
"I  c #4D4D51",
"U  c #715A43",
"Y  c #695D4A",
"T  c #7C6445",
"R  c #484E64",
"E  c #405262",
"W  c #4C536C",
"Q  c #4A596B",
"!  c #565964",
"~  c #4C5372",
"^  c #495E70",
"/  c #505571",
"(  c #575D7C",
")  c #4C6679",
"_  c #556C7E",
"`  c #56697C",
"'  c #61707A",
"]  c #984B1C",
"[  c #B7621F",
"{  c #854C26",
"}  c #8C4E24",
"|  c #874D29",
" . c #8D5026",
".. c #955422",
"X. c #9D5625",
"o. c #9E5927",
"O. c #9E5728",
"+. c #9D5829",
"@. c #955428",
"#. c #A25B29",
"$. c #A55A27",
"%. c #9D6A29",
"&. c #97713A",
"*. c #AB612A",
"=. c #BA6527",
"-. c #B6652B",
";. c #B8652A",
":. c #B66526",
">. c #B46833",
",. c #985941",
"<. c #87694A",
"1. c #846747",
"2. c #9B7242",
"3. c #917551",
"4. c #937855",
"5. c #A47D48",
"6. c #728049",
"7. c #BE843F",
"8. c #A8804B",
"9. c #BE8442",
"0. c #BF8943",
"q. c #B98B57",
"w. c #A6885B",
"e. c #AAAD59",
"r. c #C18544",
"t. c #C38C46",
"y. c #C3874B",
"u. c #C48C49",
"i. c #C88E4E",
"p. c #C49146",
"a. c #C59148",
"s. c #C89049",
"d. c #C49A65",
"f. c #E48676",
"g. c #C9A36E",
"h. c #5B5F80",
"j. c #546D83",
"k. c #5B778D",
"l. c #5B7991",
"z. c #577893",
"x. c #646A8D",
"c. c #6A6C85",
"v. c #6B7F8E",
"b. c #637587",
"n. c #636A92",
"m. c #677D92",
"M. c #6A808E",
"N. c #6B869B",
"B. c #6C8DA6",
"V. c #6B8DA9",
"C. c #678DA8",
"Z. c #728DA2",
"A. c #7C93A7",
"S. c #7E9EB3",
"D. c #2D81C1",
"F. c #8A8B92",
"G. c #839DB2",
"H. c #8AA3B6",
"J. c #8BA4BA",
"K. c #87A3B9",
"L. c #96A8B7",
"P. c #F2B586",
"I. c #BCD29C",
"U. c #FFDAB0",
"Y. c #9AB9D2",
"T. c #B3C6CF",
"R. c #B6C7D3",
"E. c #C8D0D6",
"W. c #D7D7D7",
"Q. c #D7DAE4",
"!. c #D9DBE4",
"~. c #C7D9E4",
"^. c gray99",
/* pixels */
"y.a.u.u.t.y.a.p.u.u.u.u.i.i.u.u.u.y.y.u.a.a.u.a.p.a.u.u.t.u.u.u.u.u.u.u.y.u.0.9.r.r.u.u.t.u.u.r.r.5.r.r.t.a.u.y.p.a.u.a.u.u.a.u.",
"u.p.a.u.t.r.t.p.u.y.y.y.y.y.t.u.s.u.t.u.0.0.0.u.a.a.a.a.s.t.u.u.y.r.r.r.t.u.u.u.u.u.u.u.y.y.y.r.9.r.r.t.a.a.a.u.p.a.t.y.i.a.p.r.",
"p.p.p.r.r.r.p.u.y.y.y.y.y.r.r.r.r.r.r.0.9.9.0.y.y.y.u.u.u.y.u.y.y.y.r.2 9.y.y.r.y.y.y.y.y.y.y.t.t.p.s.s.0.a.a.y.u.u.y.y.y.r.r.0.",
"p.p.t.9.t.t.u.u.y.y.y.y.y.r.r.r.7.r.9.0.0.t.y.i.u.y.u.u.y.y.y.2 y.u.2 2 y.y.y.2 2 y.2 t.y.u.u.a.p.t.p.s.a.a.u.y.y.y.y.y.9.0.7.0.",
"t.p.t.0.t.p.u.u.y.y.y.y.y.r.y.i.u.t.t.t.p.p.p.p.u.u.2 u.u.2 2 2 u.2 2 2 t.2 2 Z 2 u.2 2 a.p.p.p.t.s.p.p.p.p.u.u.u.y.y.t.r.0.r.t.",
"t.p.t.t.u.p.p.p.t.u.u.u.u.u.t.y.u.a.u.p.p.p.p.0.p.2 2 2 2 Z Z 2 2 2 Z 2 2 C C Z 2 2 Z 2 p.p.r.7.7.7.9.r.t.t.s.t.t.t.7.9.7.7.t.u.",
"a.t.0.0.t.p.p.p.a.a.a.a.p.p.u.y.y.a.p.p.p.p.a.a.a.2 Z C 2 Z Z 2 C C Z Z Z Z Z Z C C C Z 2 t.7.7.r.r.r.r.7.r.y.u.p.r.9.9.t.s.t.u.",
"s.u.9.9.y.u.a.p.p.p.p.a.a.p.s.u.a.a.p.p.p.p.a.u.2 Z Z C Z Z Z Z C Z C C C C C C C 2 Z 2 2 p.t.t.u.u.t.s.u.y.y.y.p.p.t.t.a.u.t.u.",
"a.u.y.y.y.u.a.a.p.t.t.r.r.r.r.r.0.9.0.y.i.a.p.a.2 2 Z C C C C C C 2 C C C C C C 2 2 Z 2 2 p.2 y.y.y.y.y.y.y.y.u.p.a.p.p.s.t.y.s.",
"u.y.y.y.y.u.a.u.r.9.9.9.r.9.r.r.0.0.9.9.y.u.2 p.2 2 Z C C C C 2 C 2 C C 2 C C C 2 2 C 2 2 2 2 y.y.u.y.y.y.y.y.y.a.s.p.p.p.u.y.y.",
"u.y.y.t.u.a.y.y.r.r.y.r.y.y.y.y.y.y.y.u.y.y.2 2 2 Z Z 2 C C C 2 2 2 C 2 C 2 2 C C Z Z Z 2 2 2 u.u.u.u.u.u.y.y.y.a.a.p.p.s.u.y.y.",
"u.y.i.p.p.y.y.y.t.y.y.y.y.y.y.y.y.y.y.y.y.y.2 2 Z C Z C C C C C 2 C C 2 C Z C C Z C Z C Z 2 2 a.a.i.a.p.a.s.t.t.a.p.p.p.u.u.y.y.",
"u.y.u.a.a.0.y.y.y.y.y.y.y.y.y.y.y.y.y.y.y.y.2 2 Z C Z Z Z C C C C C Z Z Z C C Z Z Z Z C Z Z 2 p.a.p.p.a.t.t.p.s.s.p.t.a.u.y.y.y.",
"t.a.a.p.i.y.y.y.y.y.y.y.y.y.y.y.y.y.y.y.y.y.2 Z Z C Z 2 2 C C C Z Z Z Z C 2 2 2 2 2 Z C Z 2 2 p.p.p.p.p.s.s.s.u.p.a.a.a.u.y.y.u.",
"0.a.p.u.i.u.y.y.y.y.y.i.u.y.y.y.y.y.y.y.y.y.y.2 2 2 C C C C C 2 C C C 2 2 2 2 2 2 2 2 C 2 2 2 p.p.u.t.u.y.y.y.y.u.u.a.p.t.t.t.u.",
"y.a.p.t.0.y.i.y.y.i.y.y.y.y.y.y.y.y.y.u.u.i.y.y.2 2 C 2 C C C 2 2 2 2 2 2 P.2 U.U.2 2 2 2 2 u.t.u.u.s.u.y.y.y.y.y.u.a.p.t.s.s.u.",
"y.a.a.0.a.p.p.p.s.u.u.y.y.u.a.a.u.u.u.s.p.t.p.p.2 2 C C 2 C C 2 2 2 2 2 P.P.P.P.U.U.2 2 2 u.y.u.a.u.p.a.y.u.y.y.y.u.a.a.u.u.u.u.",
"y.a.0.a.a.q.p.p.p.p.y.u.i.s.0.p.a.a.p.s.p.p.p.p.2 2 C C C 2 2 2 2 2 2 P.P.P.x x U.U.U.,.,.y.u.a.a.a.p.a.u.y.y.y.y.y.a.p.u.u.u.a.",
"0.u.a.i.a.p.p.p.p.a.t.u.u.u.a.p.p.p.p.t.t.a.p.p.2 2 C C C u u 2 2 2 2 P.P.x b x x U.U.,.,.t.u.s.p.a.p.p.t.u.y.u.t.t.p.p.a.u.u.0.",
"i.i.0.y.a.p.p.p.p.u.u.u.u.u.t.u.a.a.a.u.y.u.a.p.2 2 C 2 C u u u f.P.P.P.P.W.W.r r U.U.,.,.p.p.p.p.a.p.p.t.u.u.u.s.t.p.p.p.a.u.9.",
"a.a.q.a.a.a.a.a.a.p.p.u.y.y.y.t.a.a.p.p.u.a.p.u.2 2 2 C u u u P.f.P.P.P.P.W.W.r r U.U.,.,.p.p.s.p.p.p.p.p.p.p.p.p.p.p.p.a.a.u.0.",
"a.a.a.a.a.a.a.a.s.u.p.a.a.y.y.y.0.p.p.p.u.a.a.a.2 2 C 2 u u u ,.,.P.P.P.P.^.^.] ] U.U.,.,.p.p.p.p.p.p.a.p.p.u.y.a.p.t.t.t.a.t.0.",
"p.p.p.0.p.p.p.a.a.t.t.p.a.u.y.y.a.a.p.7.7.r.t.a.y.2 2 2 2 u u u ,.P.P.P.P.P.^.] P.P.U.,.,.a.p.p.p.p.a.a.0.u.0.0.a.a.t.7.0.a.p.a.",
"a.a.p.p.p.p.p.0.p.s.p.p.p.p.a.a.a.u.7.r.r.r.7.t.9.2 2 2 2 u u u u f.P.P.P.P.P.P.P.P.P.u u u.u.p.p.s.p.u.u.u.9.0.t.p.u.0.7.t.a.a.",
"p.a.a.a.u.t.a.p.a.p.a.p.p.p.p.p.a.a.a.a.s.p.r.p.p.2 2 2 2 u u u u f.P.P.P.P.P.P.P.P.P.u u i.i.u.t.t.p.t.u.u.7.9.t.p.p.p.0.p.s.u.",
"0.a.a.a.s.X . + + + + + + $ + + + + + + + $ + + + + 2 2 2 2 2 u u f.f.f.P.P.P.P.P.P.u u + O + . O + O + O . + + O + + + O +   5.",
"p.a.p.u.u.X ; N N N U U U U U U U U U k k k k k k k k 2 2 2 2 +.,.,.f.f.f.f.f.f.f.u u u p p p p p p p p p p p l N N M N N N   8.",
"0.a.0.y.u.  ; N M U U U U U U U U k k k k k k k k k k k k 2 2 2 ,.,.,.f.f.f.f.f.u u a a p p p p p p p p p a a l N N N N M c   8.",
"p.a.q.u.y.  ; N M T U U U B U U U k k V 6.6.6.6.V V V k k k k > > > > > u u u u u u a a a a a a p a a p a p a l N N N N N N   5.",
"p.a.u.i.y.u.<..             X k k V V 6.6.6.6.6.6.V V V V k k > > > > > > > u u O             . .             .   .       . k k ",
"p.p.a.a.u.u.<.' K.P   X.#.+.+.k k V V 6.6.I.e.e.6.6.V V V V V V V V V k > > > > > X.} ..#.X.$.j X.$.#.i { X.+.O.+.|   ) B.k k k ",
"a.a.a.a.s.u.q.b 9 H.) : +.k k V V 6.6.I.I.e.e.e.6.6.V V V V V V V V V k k > > > > #.} #.-.O.=.i X.X.;.} ..$.+.O.#.- J R.1 k k V ",
"a.t.p.p.p.p.p.s X N.J.@ >.k k V 6.6.I.I.I.e.e.6.6.V V V V V V V k * O O O * * * Z Z  .*.-.;.;.h o.-.=.j ..;.-.*.>.= B.)   k k V ",
"a.t.p.p.p.p.p.s o A.J.@ k k V V 6.6.I.I.e.6.6.V V V V V V k k k * O O O O O * Z Z Z Z Z -.-.:.h *.-.;.j ..;.:.-.>.= C.l.  k k V ",
"t.p.p.p.p.p.p.s X J.H.. k k V V V 6.6.6.6.6.6.V V V V V V k k k O $ & * O O O Y.Y.^.Z Z ;.;.;.h ;.;.;.h ..;.=.*.+.= B.B.  k k V ",
"t.a.p.p.p.7.7.c 0 A.H.6 k k V V V V V 6.6.V V V V V V k k k k O & $ $ $ * O O Y.Y.Y.^.Z Z -.;.h ;.-.:.j ..;.;.+.B 8 C.b.q k k k ",
"a.a.a.p.a.r.7.0.g.A H.H.k k V V V V V V V V V V V V V k k > > $ $ O O $ * * * D.Y.Y.Y.Z Z -.;.h ;.;.;.j ..;.;.i   C.B.  t.k k k ",
"p.a.t.r.u.p.p.p.g.A H.S.k k k V V V V V V V V V V V k k > O O & $ O O O $ * * D.D.Y.Z Z ;.;.;.h ;.;.;.j ..-.;.i   B.V.  s.k k k ",
"p.t.0.9.0.a.p.p.g.D S.M.k k k V V V V V V V V V V V k k O O   * $ $ O O O O O Z Z Z Z Z ;.-.;.h >.=.=.j ..=.:.t X m.N.  p.> > > ",
"a.u.r.0.t.a.a.i.d.8 k.E.k k k k k V V V V V V V V k k k O O O * * * $ O O O O O Z Z X.#.-.+.-.h -.;.;.h ..;.[ t   R.)   t.a.> > ",
"p.0.p.a.a.a.u.y.9.1.  l.> > > k k V V V V V V V V k k > O O O * * * $ $ $ $ O O O %.} ..o.o.$.h O.=.#.h @.$.| D V.Q   a.y.u.> > ",
"0.p.p.a.a.u.y.0.0.1.  J.K.> > > > k k V V V V k k > > > O O O * * * * & & $ $ O O ..n  .o.#.X.y O.X.X.h } #.| F C.k.  u.u.a.p.> ",
"0.a.p.0.q.i.y.y.r.<.  K.J.> > > > k k k k k k k k > > >   O O $ $ * * * * & & O   o.n } o.+.+.d #.O.X.t h #.| F B.l.  u.u.a.p.> ",
"t.a.a.p.a.y.y.y.y.<.X K.J.  > > > > > k k k k > > > > O O & $ & * * * * $ & $ O   o.n  .O.X.#.d O.o.#.y m O.| A B.k.  a.p.p.a.y.",
"p.p.p.* > < K u.u.q.q.1 K.Z.> > > > > > > > > > > > > O O $ $ $ * * * * $ & &     +.{  .+.o.X.d #.#.#.y m : > B.Z.0 q.u.p.p.a.y.",
"p.p.X T.T.G.' 4.p.p.a.# K.M.  > > > > > > > > > > > O   & $ & * * * & $ & $ &     .           X             % z.V.5 9.r.a.u.a.a.",
"p.t.  ! ! P 0 4.a.p.0.o Z.L.F > > > > > > > > > > > O O $ & & * * * $ & $ $ O     S F H E E E E E E E E H F G Z.k.5 7.7.u.y.t.a.",
"p.0.          4.p.a.a.o M.~.z.K.K.> > > > > > > > K.O O & $ $ * * & & $ O O O     ) z.B.V.B.V.Z.Z.B.B.B.V.j.k.G.j.5 t.t.u.u.a.a.",
"p.t.&.  P X e 2.2.2.&.$ v.^ m.M.M.> > > > > > > > M.O O q q q * * & & & O O O     j._ j._ _ < < = = j.j.j.j.` ^ ` 6 &.s.u.u.u.u.",
"p.p.    . .                 X       c.> > > >       O O q * * * $ $ &   O O O O             n.n.W ~                   p.t.y.u.a.",
"a.  J.L.J.J.G.Z.Z.^   U U U U c   R x.L   o W /   c     * * * * $ &     O O O       z & # n.c.    W ~ X ; v c N N z   s.a.a.a.a.",
"p.t.                  U U U M   n.x.  ! !.E.  ~ ~       * * * $           O O O       ~ n.n.  Q.!.  W ~ 8 e f N M z   s.a.0.a.9.",
"p.u.u.a.a.p.r.7.t.p.r.          n.4 !.F.  $ !.        $ * * *             O O O O     W ( X !.    !.  W 8         5 u.a.a.p.p.0.",
"u.t.t.u.u.0.7.r.r.p.r.9.7.r.s.  n.3 !.F.  % Q.      $ & * * *             O O O O     / h.  !.    Q.  / 8 5.a.a.a.y.y.y.q.p.p.p.",
"u.r.9.9.0.7.r.t.p.p.p.r.r.t.p.  x.n.X ! Q.E.  ~     $ $ * * *             & = g g %.%./ n.n.  !.Q.  W ~ 8 5.t.t.u.y.y.u.p.p.t.t.",
"t.r.9.9.0.9.t.t.p.a.t.9.r.r.0.r.  R x.L X o ~ Q     & $ * * *         t.t.& * & g %.%.w % x.n.X X ~ W   Y p.7.7.r.u.y.u.p.t.7.9.",
"y.y.5.9.0.0.a.p.p.s.t.9.9.9.7.r.&.A x.( L A ~ 4 * & g g %.%.%.g g 0.u.u.y.= & * & * & 3.T S n.L S ~ 9 T w.p.7.r.p.u.s.a.p.p.r.7.",
"y.i.y.0.0.a.p.0.p.p.t.r.r.9.9.r.s.d.o o . X O d.& & * g %.%.%.g g p.a.u.u.& & & = & t.r.y.q.o X X O d.p.p.p.p.u.0.t.u.p.p.p.r.t.",
"y.y.y.y.y.u.a.a.p.7.7.t.9.9.p.t.s.t.7 7 7 r 7 p.& = & & * & & & & p.p.a.u.t.a.p.p.t.y.t.0.y., , , , u.p.p.p.p.p.0.0.r.p.p.a.t.7.",
"y.y.y.y.y.y.u.u.t.0.r.r.p.p.p.t.u.r.r.0.r.r.t.t.p.& * & = & * & a.a.p.a.i.y.a.a.a.a.a.u.y.y.y.y.y.u.a.a.p.p.s.t.u.t.t.t.p.a.p.u.",
"u.y.y.y.y.y.u.i.p.u.u.u.p.p.p.p.p.0.0.9.r.9.p.t.p.& * & & & * & s.a.p.p.t.t.u.a.p.p.a.p.a.a.u.u.t.a.a.u.u.u.y.u.p.p.p.p.p.a.p.a.",
"s.u.u.y.y.y.u.a.a.a.u.u.t.p.p.p.p.p.a.a.9.9.u.u.p.s.r.r.y.y.u.a.p.a.u.a.a.p.a.a.a.a.a.a.a.a.a.p.u.p.u.u.u.u.y.y.u.a.u.u.a.a.u.u.",
"s.y.y.y.u.a.a.u.p.u.u.y.y.u.t.t.0.a.a.a.a.a.a.u.u.s.y.7.a.a.a.a.a.i.u.u.a.p.p.a.a.p.a.p.a.p.u.t.p.a.s.u.u.a.u.u.u.a.y.u.u.y.y.u.",
"s.u.i.u.a.t.a.a.a.p.p.u.t.u.t.u.a.a.0.p.p.a.a.t.t.p.p.p.p.a.0.y.u.y.t.s.u.a.a.u.u.u.t.y.u.a.u.t.u.a.t.u.u.u.u.t.s.t.y.u.u.u.y.y."
};
