/* XPM */
static char *_fd42eadcc3b4ba689ca5fa27418f420LVYzwohaDfje5DtW[] = {
/* columns rows colors chars-per-pixel */
"64 64 31 1 ",
"  c None",
". c black",
"X c gray3",
"o c #111111",
"O c #161616",
"+ c #1D1D1D",
"@ c #282D1A",
"# c #051D30",
"$ c gray19",
"% c #4E2E1A",
"& c #613C00",
"* c #794D15",
"= c #424A2A",
"- c #52473E",
"; c #5B663A",
": c #082F4D",
"> c #0A395D",
", c #984B1C",
"< c #9D6A29",
"1 c #985941",
"2 c #728049",
"3 c #AAAD59",
"4 c #E48676",
"5 c #2D81C1",
"6 c #F2B586",
"7 c #BCD29C",
"8 c #FFDAB0",
"9 c #9AB9D2",
"0 c #D7D7D7",
"q c gray98",
"w c white",
/* pixels */
"                                                                ",
"                                                                ",
"                                                                ",
"                          #                                     ",
"                   # ##   ##  #                                 ",
"                  ## #>## ### ##  #                             ",
"                  #>##>::##>###>####                            ",
"                 #>:::>>>>>>::#>#:>#                            ",
"                 ##>#:::::::>:>>>:>>#                           ",
"               # ##>##::::::#:::::>##                           ",
"               ####:##:::#::#:#:::>## #                         ",
"               ###>>>::##:#:###::#>>###                         ",
"               ##>:>:>::>:#::#::::>:>##                         ",
"               #>>:>>>>::>>>::::>>>:>##                         ",
"               ##>:>#####:>>>>::##>:>>#                         ",
"               ###:########:::#::::###                          ",
"                #####88#6######::#:##                           ",
"                 ###886666#####:#::##                           ",
"                 11888--666#####:::##                           ",
"                 1188----66####&:::##                           ",
"                 1188%%0066664&&:#:##                           ",
"                 1188%%00666644&&:###                           ",
"                 1188,,qq666611&&#:##                           ",
"                 11866,q666661&&####                            ",
"                 &&6666666664&&&####                            ",
"                  &&666666444&&####                             ",
"                  &&&4444444111###========                      ",
"                    &&44444111##============                    ",
"                    &&&&&&@@@@@===;;;2222;==                    ",
"                     X&&@@@@@@@=;;;;222222;;==                  ",
"                     @@@@@=;;;;;;;;2233722;;==                  ",
"                     @@@@==;;;;;;;;223337722;;==                ",
"                    >>+++XXX+=;;;;;;223377722;==                ",
"                  >>>>>+XXXXX+==;;;;;;2237722;;==               ",
"                  >>w99XXX+ooX==;;;;;;222222;;;==               ",
"                 >>w999XX+ooooX===;;;;;;22;;;;;==               ",
"                 >>9995+++oXXoo@==;;;;;;;;;;;;;==               ",
"                  >>955++oXXXooX@==;;;;;;;;;;;===               ",
"                  >>>>>XXXXXoo+XX==;;;;;;;;;;;===               ",
"                    >>XXXXXo+++XX===;;;;;;;;=====               ",
"                     XXXoooo+++XX@==;;;;;;;;==@@@               ",
"                     XXoooo++++XX@@@==;;;;==@@@@                ",
"                     .Xoo++++oo..@@@========@@@@                ",
"                     XXoo+++ooo.. @@@@====@@@@@                 ",
"                     XXoo+++ooo.. @@@@@@@@@@@@@                 ",
"                     XXo+++oooo... @@@@@@@@@@@                  ",
"                     XX++++oooX... @@@@@@@@@@@                  ",
"                     XX++++ooXXX... @@@@@@@@                    ",
"                     XX$$++..XXX... @@@@@@@@                    ",
"                     XX$$++..XXXX..   @@@@                      ",
"                     XX+++o..XXXX..                             ",
"                    XX+++oo..XXXXX..                            ",
"                    XX+++XX..XXXXX..                            ",
"                   XX++++XX...XXXXX..                           ",
"                   XX+++oXX ...**<<OO                           ",
"                   XX++ooXX  ..**<OOO                           ",
"                   **<<**OO   OOOOOOO                           ",
"                   **<<*OOO    OOOOO                            ",
"                   OOOOOOOO                                     ",
"                   OOOOOOO                                      ",
"                                                                ",
"                                                                ",
"                                                                ",
"                                                                "
};
