/* XPM */
static char *_a48af3ae7a849c5e7b8c14793f4d4cd37VUi5H6FOS0RZz8[] = {
/* columns rows colors chars-per-pixel */
"64 64 30 1 ",
"  c None",
". c black",
"X c gray3",
"o c #111111",
"O c #161616",
"+ c #1D1D1D",
"@ c #282D1A",
"# c #051D30",
"$ c gray19",
"% c #4E2E1A",
"& c #613C00",
"* c #794D15",
"= c #424A2A",
"- c #52473E",
"; c #5B663A",
": c #082F4D",
"> c #0A395D",
", c #984B1C",
"< c #9D6A29",
"1 c #985941",
"2 c #728049",
"3 c #AAAD59",
"4 c #E48676",
"5 c #2D81C1",
"6 c #F2B586",
"7 c #FFDAB0",
"8 c #9AB9D2",
"9 c #D7D7D7",
"0 c gray98",
"q c white",
/* pixels */
"                                                                ",
"                                                                ",
"                                                                ",
"                              #    #                            ",
"                        # ##  ##   ##  #                        ",
"                       ## #># ### ##>####                       ",
"                       #>##>:##>##:#>#:>#                       ",
"                      #>:::>>>>>:>:>>>:>>#                      ",
"                      ##>#::::::>>:::::>##                      ",
"                    # ##>##::::::#:#:::>## #                    ",
"                    ####:##::#:::#:#::#:####                    ",
"                    ###>>>::#:#::###::#>>###                    ",
"                    ##>:>:>:::#:::#::::>:>##                    ",
"                    #>>:>>>>:>>>:::::>>>:>>#                    ",
"                    ##>:>####:>>>>>####>:>##                    ",
"                    ###:######::::######:###                    ",
"                     #####66########66#####                     ",
"                     ####66666####66666####                     ",
"                     ####66--666666--66####                     ",
"                    &&##66----6666----66##&&                    ",
"                    &&#14699%%6666%%99641#&&                    ",
"                     &&14499%%6666%%99441&&                     ",
"                     &&&4400,,6776,,0044&&&                     ",
"                      &&4440,677776,0444&&                      ",
"                      &&1446667777666441&&                      ",
"                       &&11446677664411&&                       ",
"                      2&&11446666664411&&2                      ",
"                      ;3;&&1446666441&&;3;                      ",
"                     ;===&&&&&&&&&&&&&&===;                     ",
"                    ;====XX&&&&&&&&&&XX====;                    ",
"                    ====2;Xo++++++++oX;2====                    ",
"                    ===;22o++++++++++o22;===                    ",
"                    ==@@;22++++++++++22;@===                    ",
"                    =X@@@;2++++++++++2;@@@X=                    ",
"                    =X+oo>>++++++++++>>oo+X=                    ",
"                    XX++>>>>>++++++>>>>>++XX                    ",
"                    XXXXqq8>>++++++>>8qqXXXX                    ",
"                    XXXXq888>>++++>>888qXXXX                    ",
"                    XX++8885>>++++>>5888++XX                    ",
"                     Xo+885>>o++++o>>588+oX                     ",
"                     XXX>>>>>o++++o>>>>>XXX                     ",
"                      XXX>>oo++++++oo>>XXX                      ",
"                       XXXooo++++++oooXXX                       ",
"                        XXoo++++++++ooXX                        ",
"                        ..XXXXXXXXooooX.                        ",
"                       ..XXXXXXXXooooooXX                       ",
"                       ..XXXXXoooo++oooXX                       ",
"                      ..XXXXXXoooo++ooooXX                      ",
"                      ..XXXXXXXooo++$oooXX                      ",
"                      ..XXXXXXXXoo++$$ooXX                      ",
"                      ..XXXX..XXoo++$$ooXX                      ",
"                       ..XXX..XXoo+++$ooXX                      ",
"                       ..XXX..XXoo++++oo..                      ",
"                         .XX...XXoo++ooo.                       ",
"                         ......XXooooooX                        ",
"                          .......XooooXX                        ",
"                          OOOOO...**<<..                        ",
"                           OOOOOO.**<<..                        ",
"                               OOOOOOOOO                        ",
"                                 OOOOOO                         ",
"                                                                ",
"                                                                ",
"                                                                ",
"                                                                "
};
